<svg xmlns="http://www.w3.org/2000/svg" viewBox="0 0 651.68 156.75"><defs><style>.cls-1{isolation:isolate;}.cls-2{fill:#1e314c;}.cls-3{mix-blend-mode:multiply;}.cls-4{fill:#3eaef7;}</style></defs><title>fi-logo</title><g class="cls-1"><g id="Layer_2" data-name="Layer 2"><g id="Layer_1-2" data-name="Layer 1"><path class="cls-2" d="M11.71,117.56V69.34H0V55.72H11.71v-4.2C11.71,34.73,23,27,35.63,27a30.26,30.26,0,0,1,16.29,5.09L46.19,43.64c-3.31-2.16-6.36-3.31-9.54-3.31-5.34,0-9.42,3.56-9.42,11.2v4.2H45.68V69.34H27.23v48.22Z"/><path class="cls-2" d="M73.54,37.15c0,12.09-18.32,12.09-18.32,0S73.54,25.06,73.54,37.15ZM56.62,54.58v63H72.14v-63Z"/><path class="cls-2" d="M99.37,91.73c1,7.76,7.76,13.36,18.7,13.36,5.73,0,13.23-2.16,16.8-5.85l9.92,9.8c-6.62,6.87-17.43,10.18-27,10.18-21.63,0-34.48-13.36-34.48-33.46,0-19.08,13-32.83,33.34-32.83,21,0,34.1,13,31.68,38.81Zm34.1-12.85c-1-8.14-7.38-12.21-16.29-12.21-8.4,0-15.27,4.07-17.56,12.21Z"/><path class="cls-2" d="M175.71,28.62v88.94h-15.4V28.62Z"/><path class="cls-2" d="M254.47,28.62v88.94H240l-1-8.65c-4.84,7.51-12.6,10.05-20.23,10.05-18.45,0-32.32-12.21-32.32-32.83,0-21.63,13.61-32.83,31.94-32.83,6.62,0,16.92,3.56,20.61,10.05V28.62ZM201.92,86.13c0,10.94,7.89,18.45,17.81,18.45s18.19-7.13,18.19-18.45a17.9,17.9,0,0,0-18.19-18.32C209.81,67.81,201.92,74.81,201.92,86.13Z"/><path class="cls-2" d="M284.88,37.15c0,12.09-18.32,12.09-18.32,0S284.88,25.06,284.88,37.15ZM268,54.58v63h15.52v-63Z"/><path class="cls-2" d="M343.66,117.56V84.73c0-9.54-5.22-16.8-15.14-16.8-9.54,0-16,8-16,17.56v32.06h-15.4V54.71H311l1,8.53c6.36-6.24,12.72-9.42,20.61-9.42,14.76,0,26.59,11.07,26.59,30.79v33Z"/><path class="cls-2" d="M413.51,71.5c-4.45-4.2-9.54-5.6-15.52-5.6-7.38,0-11.45,2.29-11.45,6.23s3.69,6.36,11.71,6.87c11.83.76,26.85,3.44,26.85,20.1,0,11.07-9,20.61-27,20.61-9.92,0-19.85-1.65-29-11.2l7.63-11.07c4.45,5,14.63,8.65,21.63,8.78,5.85.13,11.32-2.93,11.32-7.51,0-4.33-3.56-6.11-12.47-6.62-11.83-.89-26-5.22-26-19.47,0-14.51,15-19.59,26.47-19.59,9.8,0,17.18,1.91,24.43,8.27Z"/><rect class="cls-2" x="435.01" y="54.58" width="15.52" height="62.98"/><path class="cls-2" d="M513.77,48.47l11.45,8.65-7,8.91c4.84,5.47,6.62,11.71,6.62,18.58,0,7.76-2.93,18.7-13.23,23.41,10.43,5.22,13,12.72,13,20.74,0,17.3-13.23,28-31.43,28s-31.81-11.07-31.81-28h15.4c0,8.14,7.51,13.49,16.41,13.49s15.9-4.83,15.9-13.49-8.14-12.6-15.9-12.6c-19.59,0-31.81-12-31.81-31.56S475.6,52.8,493.15,52.8c5,0,10.05.64,14.38,3.56Zm-37,36.13c0,10.94,7.38,17.43,16.41,17.43s16.29-6.62,16.29-17.43-7.38-17.69-16.29-17.69S476.74,73.66,476.74,84.61Z"/><path class="cls-2" d="M551.55,28.49V63.36c5.6-7.25,12.47-9.42,19.59-9.42,17.81,0,25.7,12.09,25.7,30.54v33.08H581.33v-33c0-11.45-6-16.29-14.25-16.29-9.16,0-15.52,7.76-15.52,17.18v32.06H536V28.49Z"/><path class="cls-2" d="M631.84,37.15V55h17.3V68.32H631.71v27.1c0,6,3.31,8.91,8.14,8.91a17.73,17.73,0,0,0,7.51-1.91l4.33,13.23a34.66,34.66,0,0,1-12.85,2.67c-13.61.51-22.52-7.25-22.52-22.9V68.32H604.61V55h11.71V38.8Z"/><g class="cls-3"><circle class="cls-4" cx="409.97" cy="35.46" r="6.54"/><circle class="cls-4" cx="426.02" cy="17.95" r="8.01"/><circle class="cls-4" cx="442.04" cy="36.94" r="10.43"/><circle class="cls-4" cx="462.89" cy="12.39" r="12.39"/><rect class="cls-4" x="406.12" y="25.4" width="23.75" height="2.62" transform="translate(115.91 316.83) rotate(-47.5)"/><rect class="cls-4" x="438.62" y="25.4" width="23.75" height="2.62" transform="translate(126.5 340.85) rotate(-47.51)"/><rect class="cls-4" x="433.06" y="14.83" width="2.62" height="23.75" transform="translate(96.01 300.39) rotate(-42.49)"/></g></g></g></g></svg>