<?xml version="1.0" encoding="UTF-8"?>
<svg xmlns="http://www.w3.org/2000/svg" width="46" height="50" viewBox="0 0 46 50" fill="none">
  <path d="M9.15932 45.1885C9.33694 45.7996 9.43642 46.2259 9.58562 46.6309C9.75615 47.0927 9.96219 47.1211 10.2819 46.7446C10.7295 46.2117 11.1203 45.6433 11.5822 45.1317C12.0866 44.5704 12.3921 44.6272 12.6621 45.3235C12.925 46.0056 13.1169 46.709 13.3798 47.3911C13.5503 47.8316 13.735 48.329 14.3318 48.3432C14.7226 48.3503 15.1632 47.7748 15.2839 47.1638C15.3905 46.638 15.4474 46.0909 15.6392 45.6006C15.7387 45.3591 16.0939 45.2098 16.3284 45.0251C16.4847 45.2809 16.7405 45.5296 16.7831 45.8067C16.84 46.1904 16.776 46.6096 16.7121 47.0003C16.5771 47.7961 16.9039 48.5137 17.5718 48.7624C18.2681 49.0182 19.2557 48.6914 19.5825 48.0377C19.6678 47.8672 19.6323 47.5901 19.5754 47.3911C19.0639 45.5864 18.9999 43.7888 19.6607 42.0125C19.8099 41.6075 20.0302 41.2026 20.3073 40.8686C20.8188 40.2363 21.5436 40.286 21.9912 40.961C22.1759 41.2381 22.3038 41.5862 22.3535 41.9131C22.6093 43.7178 22.3038 45.4301 21.437 47.043C20.9325 47.988 21.2665 48.7269 22.3038 49.0111C22.9788 49.1958 23.2914 48.94 23.2488 48.2508C23.1919 47.2561 23.4406 46.3396 24.0517 45.5438C24.6414 44.7764 25.3448 44.5491 25.8706 44.9185C26.51 45.3662 26.7729 46.5314 26.3182 47.2064C26.0695 47.583 25.693 47.8743 25.3661 48.194C25.2169 48.3361 25.0464 48.4427 24.8759 48.5777C25.494 49.0963 26.2543 49.139 26.8227 48.535C27.3627 47.9595 27.7677 47.249 28.1655 46.5598C28.4071 46.1477 28.4995 45.6575 28.7055 45.2241C28.7837 45.0535 28.9897 44.947 29.1389 44.812C29.2526 44.9541 29.4231 45.082 29.4729 45.2454C29.7002 45.9772 29.8779 46.7303 30.1123 47.4551C30.2331 47.8387 30.3894 48.2153 30.6097 48.5493C30.8939 48.9827 31.2989 48.9685 31.576 48.5279C31.9384 47.9524 32.0094 47.3272 31.8957 46.6451C31.8176 46.1832 31.8531 45.7001 31.9028 45.2312C31.9242 45.0251 32.0876 44.7906 32.251 44.6556C32.4144 44.5278 32.6844 44.4354 32.8691 44.4851C33.0112 44.5206 33.1818 44.8049 33.1747 44.9754C33.1178 46.7232 32.656 48.3361 31.2563 49.4942C30.4534 50.1621 29.6363 49.8779 29.2455 48.9045C29.146 48.6558 29.0821 48.3929 28.9897 48.1372C28.7553 47.4693 28.5634 47.4266 28.1016 47.9453C27.86 48.2153 27.6398 48.5137 27.384 48.7695C26.7729 49.3948 26.034 49.8282 25.1459 49.8211C24.7124 49.8211 24.2861 49.6008 23.8456 49.5013C23.6467 49.4587 23.398 49.3734 23.2488 49.4516C22.2399 49.9703 21.302 50.0413 20.4849 49.1106C20.1936 48.7837 19.9094 48.869 19.5683 49.075C19.0994 49.3521 18.6091 49.6577 18.0834 49.7855C17.1668 50.0129 16.7618 49.7855 16.2644 48.9827C15.6534 47.9951 15.6108 48.0093 14.9287 48.9329C14.6587 49.2953 14.2537 49.5511 13.9055 49.8566C13.5929 49.4871 13.2448 49.1461 12.9819 48.7411C12.7403 48.3787 12.6195 47.9311 12.3993 47.5545C12.0227 46.9151 11.6603 46.8298 11.0919 47.2916C10.4311 47.8174 9.8272 48.4143 9.18774 48.9685C8.88221 49.2313 8.5767 49.5013 8.24275 49.7216C8.12907 49.7998 7.8946 49.7927 7.76671 49.7216C7.68145 49.6719 7.63171 49.4374 7.66724 49.3166C7.96565 48.1443 8.27828 46.9719 8.61222 45.8138C8.67617 45.6219 8.89643 45.4869 9.15932 45.1885ZM20.6554 46.6451C20.8046 46.5598 20.8615 46.5456 20.897 46.503C20.9609 46.4319 21.0249 46.3538 21.0604 46.2685C21.5578 45.1033 21.8278 43.9025 21.6501 42.6307C21.6004 42.2825 21.5222 41.8491 21.0888 41.906C20.8615 41.9344 20.5844 42.3039 20.5133 42.5667C20.1865 43.732 20.2078 44.9185 20.4138 46.1051C20.4494 46.2827 20.563 46.439 20.6554 46.6451ZM25.6716 46.6451C25.4443 46.3893 25.2169 46.1264 24.9895 45.8706C24.7267 46.1051 24.279 46.3111 24.2364 46.5882C24.1582 47.0359 24.3288 47.5332 24.4282 47.9951C24.4353 48.0306 24.7124 48.0732 24.8119 48.0235C25.3235 47.7606 25.5295 47.313 25.6716 46.6451Z" fill="#3EAFF8"></path>
  <path d="M4.12891 2.57919C4.76126 2.12446 5.39362 1.66263 6.1965 1.08711C5.42914 0.817118 4.82521 0.611069 4.15733 0.376599C4.93179 -0.10655 7.11306 0.0781839 7.75963 0.68212C7.39016 0.937905 7.0278 1.17237 6.69386 1.44237C6.53044 1.57737 6.42386 1.79052 6.29597 1.96104C6.50202 2.07473 6.69386 2.23814 6.90701 2.29499C7.21964 2.37314 7.55358 2.37314 7.88041 2.42288C8.2783 2.47972 8.39198 2.67866 8.10067 2.99839C7.78094 3.35365 7.42569 3.68049 7.10596 4.03574C6.99227 4.16364 6.92833 4.33416 6.84307 4.48337C6.87859 4.5331 6.92122 4.58284 6.95675 4.63257C7.53937 4.38389 8.11489 4.13521 8.85382 3.82259C8.79698 4.56152 8.74724 5.17967 8.6975 5.79782C8.76856 5.81913 8.83961 5.84045 8.91776 5.86887C9.25881 5.43546 9.60696 5.00915 9.94801 4.57573C10.0048 4.58994 10.0617 4.60415 10.1185 4.61836C10.1967 5.23651 10.2748 5.85466 10.353 6.47281C10.4454 6.48702 10.5306 6.50122 10.623 6.52254C10.8219 5.93992 11.0209 5.3644 11.2625 4.6681C11.5822 5.09441 11.8309 5.42124 12.0867 5.74808C12.1577 5.73387 12.2217 5.71255 12.2927 5.69834C12.3424 5.24362 12.3922 4.79599 12.4632 4.15653C13.1382 4.69652 13.7208 5.15835 14.3035 5.62729C14.3603 5.57756 14.4171 5.53493 14.474 5.48519C14.3106 5.07309 14.1187 4.6681 13.9979 4.24179C13.8771 3.8368 13.8274 3.40339 13.7493 2.99129C14.1471 3.05523 14.545 3.10497 14.9429 3.18313C15.1276 3.21865 15.3053 3.33234 15.49 3.34655C15.6961 3.36076 15.9092 3.31102 16.1224 3.2826C16.0655 3.07655 16.0584 2.82077 15.9376 2.67156C15.5824 2.24525 15.1703 1.86157 14.8008 1.44947C14.4385 1.04448 14.4811 0.838433 14.9855 0.632385C15.9305 0.248707 16.911 0.0923946 17.92 0.156341C17.9342 0.213182 17.9555 0.262918 17.9697 0.319759C17.7992 0.412126 17.6287 0.518703 17.451 0.603964C17.1526 0.731857 16.84 0.831328 16.5416 0.973431C15.9163 1.26474 15.8524 1.49921 16.2858 2.01789C16.57 2.35893 16.8968 2.65735 17.1952 2.98418C17.4652 3.2826 17.7565 3.5668 17.991 3.89364C18.1118 4.06416 18.1189 4.30574 18.1829 4.51889C17.9484 4.56152 17.7068 4.67521 17.4937 4.62547C16.9537 4.50468 16.435 4.28442 15.895 4.15653C15.5753 4.07837 15.2342 4.08548 14.9074 4.05706C14.9642 4.3839 14.9855 4.72494 15.0921 5.03046C15.2769 5.57756 15.5397 6.08913 15.7245 6.63622C15.7884 6.82806 15.7174 7.06964 15.7103 7.2899C15.4971 7.24016 15.2484 7.24016 15.085 7.11937C14.6161 6.78543 14.1898 6.39465 13.735 6.03939C13.1382 5.57756 12.9393 5.65571 12.7687 6.37333C12.7119 6.6078 12.6409 6.83517 12.5414 7.18332C12.3282 6.99148 12.2003 6.86359 12.0582 6.7499C11.8806 6.61491 11.6959 6.49412 11.5182 6.36623C11.3975 6.56517 11.2269 6.75701 11.1559 6.97727C10.9996 7.45331 10.9001 7.94357 10.7509 8.41961C10.6798 8.64698 10.5448 8.84592 10.4383 9.05907C10.3743 9.05907 10.3104 9.05907 10.2535 9.06618C10.1683 8.83881 10.0475 8.61145 9.99774 8.37698C9.89827 7.88673 9.85564 7.38937 9.77038 6.89911C9.69933 6.51544 9.47196 6.47991 9.18776 6.70017C8.9746 6.86359 8.79698 7.07674 8.57672 7.22595C8.44882 7.31121 8.22857 7.37516 8.10778 7.31832C8.0012 7.26858 7.92305 7.04121 7.92305 6.89201C7.93015 6.48701 8.0012 6.08913 8.00831 5.68413C8.01541 5.16546 7.83778 5.03757 7.36884 5.25783C6.72228 5.55624 6.11124 5.92571 5.47178 6.23833C5.19468 6.37333 4.88205 6.43728 4.59074 6.52964C4.54811 6.47991 4.50548 6.43017 4.46285 6.37333C4.57653 6.15307 4.65468 5.89729 4.811 5.71255C5.33678 5.07309 5.89808 4.46916 6.42386 3.82969C6.58728 3.63075 6.65833 3.36786 6.77201 3.13339C6.53044 3.06234 6.28887 2.94866 6.04019 2.92024C5.43625 2.85629 4.83231 2.83498 4.22838 2.79945C4.17864 2.72129 4.15022 2.65024 4.12891 2.57919Z" fill="#3EAFF8"></path>
  <path d="M15.1561 32.3568C15.7956 32.6552 16.1508 33.1313 16.3 33.6784C16.4563 34.261 16.7974 34.4599 17.3232 34.4884C17.8774 34.5168 18.3392 34.3605 18.6376 33.8418C18.73 33.6784 18.8934 33.5007 19.0639 33.451C20.7336 32.9323 20.9468 32.7689 21.7994 31.2129C21.8491 31.22 21.9273 31.2058 21.9557 31.2342C22.8296 32.236 24.0873 31.9092 25.1743 32.165C25.2951 32.1934 25.487 32.1366 25.5651 32.0513C25.8422 31.7387 25.9559 31.8879 26.098 32.1721C26.2259 32.4421 26.5243 32.6837 26.5314 32.9394C26.5314 33.1242 26.1193 33.2876 25.9914 33.515C25.828 33.8134 25.7783 34.1686 25.6504 34.4884C25.3093 35.3694 24.6486 35.6323 23.8741 35.0852C23.4265 34.7726 23.0996 34.261 22.7799 33.7921C22.446 33.3018 22.0694 33.181 21.6573 33.6073C20.5276 34.7939 19.1563 35.2699 17.5434 35.1491C17.4226 35.142 17.2947 35.1776 17.1171 35.341C17.3374 35.4475 17.5434 35.6039 17.7779 35.6536C19.135 35.9449 20.3713 35.6749 21.4583 34.7868C22.0623 34.2965 22.0552 34.2894 22.446 34.9218C22.986 35.8028 23.803 36.1936 24.8049 36.2362C25.1246 36.2504 25.4443 36.2362 25.7854 36.2362C25.4585 37.1812 23.6254 37.1457 22.7728 36.2007C21.8278 36.7123 20.826 37.032 19.7105 36.9823C18.5239 36.9325 17.4297 36.6483 16.4848 35.9094C15.9163 35.4689 15.3195 35.2131 14.5806 35.206C13.8843 35.1989 13.3016 34.8649 12.7617 34.2752C14.0406 34.2184 15.1348 33.9768 15.1561 32.3568ZM25.0535 33.586C25.0535 33.5007 25.0607 33.4155 25.0607 33.3302C24.8404 33.1668 24.6059 32.8684 24.3999 32.8826C24.1725 32.8968 23.8386 33.181 23.7888 33.4013C23.7036 33.7494 23.9807 34.062 24.3644 34.0123C24.6059 33.9768 24.8262 33.7352 25.0535 33.586Z" fill="#3EAFF8"></path>
  <path d="M37.6367 20.3633C37.8215 20.2212 38.0204 20.0862 38.198 19.9299C38.397 19.7523 38.5604 19.5249 38.7735 19.3686C38.9157 19.2691 39.1714 19.1697 39.278 19.2265C39.4272 19.3118 39.548 19.5462 39.5622 19.731C39.612 20.4344 39.3206 21.0312 38.8304 21.6067C38.5959 21.1733 38.5107 20.4699 37.857 20.7399C37.4378 20.9175 37.1394 21.3794 36.7699 21.7275C36.6349 21.3865 36.4857 20.9815 36.3223 20.5836C35.7681 19.2549 34.9226 18.2886 33.4092 17.976C32.3789 17.7629 32.1658 17.3152 32.3789 16.2921C32.45 15.9581 32.521 15.6242 32.7271 15.2121C32.9545 15.5674 33.2458 15.8942 33.3879 16.2779C33.6294 16.9316 33.9776 17.4715 34.546 17.8836C35.4341 18.5373 36.0949 19.3686 36.5141 20.3918C36.5639 20.5125 36.6349 20.6191 36.6989 20.7257C36.7557 20.7115 36.8125 20.7044 36.8694 20.6902C36.7983 20.3065 36.8267 19.866 36.642 19.5391C36.1731 18.7078 35.6331 17.9192 35.0789 17.1376C34.752 16.6758 34.3542 16.2637 33.935 15.7663C35.0149 15.745 35.5833 16.2779 35.9244 17.1092C36.3294 18.1039 36.6989 19.1128 37.1181 20.1928C37.4449 19.5605 37.7504 18.9707 38.063 18.3739C37.4378 17.8197 36.3294 17.706 36.5141 16.5621C36.6278 15.8871 37.1323 15.5034 37.8712 15.1482C37.8286 15.6171 37.7859 15.9653 37.7717 16.3134C37.7575 16.7255 37.6936 17.1589 37.793 17.5497C37.8925 17.9618 38.2336 17.9973 38.5391 17.6989C39.4272 16.825 39.3135 15.3045 38.2975 14.6082C37.8428 14.2955 37.3809 14.189 36.8339 14.4377C36.0168 14.8071 35.157 14.9776 34.2547 14.8355C32.4287 14.5442 31.0929 12.8106 31.2563 10.9561C32.1871 10.9561 33.1108 10.9632 34.0344 10.9561C35.0434 10.9419 35.8249 11.3967 36.4075 12.164C37.0257 12.974 37.6794 13.7058 38.5391 14.3027C39.6333 15.0629 39.7967 16.4342 39.072 17.5923C38.7522 18.0968 38.3615 18.5515 38.0488 19.056C37.8215 19.4184 37.658 19.8162 37.4591 20.207C37.5088 20.2639 37.5728 20.3136 37.6367 20.3633ZM35.4128 12.775C35.356 12.8035 35.292 12.8319 35.2352 12.8603C34.9297 12.4411 34.6242 12.029 34.2192 11.4748C34.1481 11.9295 34.1126 12.1924 34.0557 12.569C33.6437 12.2208 33.3026 11.9295 32.855 11.5459C32.8905 12.0077 33.0113 12.3274 32.8976 12.4979C32.7768 12.6756 32.4429 12.7182 32.2013 12.8177C32.2155 12.8887 32.2226 12.9598 32.2368 13.0308C32.7271 13.0308 33.2244 13.0308 33.8071 13.0308C33.5726 13.3648 33.4305 13.5637 33.2884 13.7698C33.3239 13.8266 33.3665 13.8834 33.4021 13.9403C33.6792 13.8266 33.9563 13.7129 34.2334 13.6064C34.5176 13.4927 34.8018 13.3861 35.086 13.2795C35.1002 13.3293 35.1215 13.3861 35.1357 13.4358C35.0078 13.6987 34.8799 13.9687 34.7165 14.3169C35.4697 14.0327 36.0807 13.8053 36.6704 13.5779C36.3791 13.1303 36.0452 12.6258 35.6473 12.0148C35.5549 12.3345 35.4839 12.5548 35.4128 12.775Z" fill="#3EAFF8"></path>
  <path d="M26.8866 0C27.3556 0.760249 27.8743 0.532885 28.4214 0.348151C30.1763 -0.24868 32.0023 0.497359 32.5921 2.02496C33.0752 3.28257 32.7413 4.78886 31.7892 5.63437C30.8016 6.5083 29.3237 6.69303 28.1443 5.98252C27.5901 5.64858 27.249 5.71963 26.9435 6.30225C26.574 5.17254 26.574 5.17254 25.6788 5.89726C25.5793 5.98252 25.4656 6.05357 25.2596 6.06778C25.4159 5.75516 25.5651 5.44964 25.7214 5.13701C26.0056 4.5686 25.9772 4.52597 25.3519 4.39097C25.2596 4.36966 25.1743 4.34123 24.9683 4.27729C25.1956 4.08545 25.3519 3.95045 25.5225 3.81546C26.0482 3.40336 26.034 3.19731 25.4372 2.86337C25.3235 2.79942 25.2169 2.72127 25.1175 2.65021C25.1317 2.58627 25.1317 2.52943 25.153 2.51522C26.0838 1.88996 25.9488 1.98233 25.3661 1.06577C25.2809 0.937878 25.2027 0.80288 25.1317 0.667882C25.1104 0.625251 25.1317 0.561305 25.1317 0.404992C25.4443 0.561305 25.7072 0.682093 25.9701 0.81709C26.6167 1.15103 26.6877 1.1084 26.8085 0.397887C26.8014 0.333941 26.8298 0.26289 26.8866 0ZM29.2171 5.13701C29.0466 5.06596 28.8761 4.95228 28.6985 4.92386C28.4498 4.88833 28.1869 4.90965 27.9311 4.90965C28.1016 5.1157 28.2224 5.407 28.4427 5.52069C29.7998 6.24541 31.4055 5.45674 31.6613 3.94335C31.7466 3.42467 31.7395 2.86337 31.64 2.3518C31.3629 0.966297 29.7429 0.213154 28.5279 0.888142C28.3432 0.994719 28.2579 1.28603 28.13 1.49918C28.3361 1.54181 28.5421 1.61997 28.7482 1.61286C28.9969 1.60576 29.2384 1.5205 29.5298 1.45655C29.2598 2.25233 29.2598 2.25233 30.0342 2.34469C30.2545 2.37311 30.4676 2.41575 30.6879 2.45127C30.695 2.4868 30.7021 2.52943 30.7092 2.56495C30.3824 2.73548 30.0555 2.906 29.6719 3.10494C29.9845 3.47441 30.2616 3.79414 30.6311 4.23466C30.1053 4.19203 29.7145 4.05703 29.4019 4.1494C28.8264 4.31992 29.4729 4.76754 29.2171 5.13701ZM27.3201 1.70523C27.2206 2.33048 26.8582 2.52943 26.2117 2.42285C26.4461 2.71416 26.5953 2.89889 26.7374 3.07652C26.5811 3.29678 26.439 3.48151 26.2259 3.78703C26.9719 3.63783 27.0359 4.12098 27.114 4.4265C27.5687 4.27729 27.9737 4.1494 28.4071 4.00729C28.3716 3.90782 28.3077 3.7373 28.2437 3.55257C28.4853 3.4602 28.6914 3.38204 29.0111 3.25415C28.67 3.07652 28.4569 2.96284 28.2437 2.85626C28.3219 2.65021 28.3929 2.46548 28.5564 2.04628C27.7961 2.64311 27.6256 2.11733 27.3201 1.70523Z" fill="#3EAFF8"></path>
  <path d="M5.02417 17.0382C5.02417 17.3934 4.98864 17.7558 5.03838 18.1039C5.08101 18.381 5.22311 18.6368 5.32258 18.9068C5.46468 18.6652 5.67073 18.4308 5.74178 18.1679C5.88389 17.6918 5.91941 17.1874 6.05441 16.7042C6.11125 16.484 6.28888 16.2992 6.48072 16.1287C6.88571 17.0879 6.08994 17.9974 6.53756 19.0489C7.33333 18.0187 7.24807 16.69 8.12911 15.8374C8.31384 17.0737 7.45412 18.1253 7.46833 19.4894C8.57673 18.715 8.59804 17.4716 9.21619 16.6048C9.29434 16.619 9.3654 16.6332 9.44355 16.6474C9.41513 17.0169 9.46487 17.4147 9.33698 17.7487C8.97461 18.7576 8.55541 19.7523 8.13621 20.7399C7.85911 21.3936 7.51806 22.0189 7.22675 22.6725C6.92834 23.3404 6.8786 24.0083 7.37596 24.6407C7.34044 24.6904 7.30491 24.7401 7.26938 24.7899C6.8715 24.5767 6.47361 24.3636 6.05441 24.1433C5.59258 24.6264 5.56416 25.5146 6.11125 26.1825C6.42388 26.5661 6.82176 26.8859 7.16281 27.2482C7.68859 27.8166 7.74543 28.3637 7.36886 29.0174C5.37942 28.1151 4.55523 26.019 5.47179 23.9657C5.81284 23.1983 6.33151 22.5162 6.78624 21.8057C7.36886 20.8963 7.26938 20.3065 6.34572 19.7381C6.21072 19.66 5.79152 19.7665 5.75599 19.866C5.66363 20.1289 5.64231 20.4699 5.72757 20.7328C5.94783 21.3652 5.85546 21.8981 5.3439 22.3599C5.03838 22.637 4.78259 22.6228 4.63338 22.2249C4.5197 21.9265 4.3847 21.5997 4.3847 21.287C4.39891 20.1005 4.45576 18.9139 4.53391 17.7345C4.54812 17.4716 4.72575 17.2229 4.83233 16.9671C4.89627 17.0026 4.96022 17.024 5.02417 17.0382Z" fill="#3EAFF8"></path>
  <path d="M26.8724 23.6883C26.5385 23.8375 26.2543 23.9583 25.8777 24.1288C26.0695 24.2425 26.1761 24.2852 26.2472 24.3562C26.3964 24.4983 26.5243 24.6546 26.6664 24.8109C26.4674 24.8962 26.2614 25.0596 26.0695 25.0383C25.5793 24.9886 25.1246 24.9743 24.7409 25.358C25.2667 25.962 25.2098 26.0827 24.343 26.3385C22.9078 26.7719 22.4459 28.0082 23.2843 29.1806C23.3767 29.3014 23.4691 29.4293 23.5827 29.5287C24.5064 30.3671 25.5793 30.5519 26.7445 30.2179C26.9364 30.1611 27.1353 29.9693 27.2277 29.7845C27.2632 29.7135 27.0287 29.4932 26.8866 29.3156C26.9008 29.1948 26.9151 29.0101 26.9506 28.7259C26.6664 28.7969 26.4532 28.868 26.2401 28.8893C25.6432 28.939 25.0322 29.0314 24.4425 28.9745C24.0517 28.939 23.7177 28.6335 23.7106 28.3564C24.0091 27.9656 24.2009 27.7169 24.4567 27.383C25.8493 28.5056 27.4906 28.4701 29.1887 27.9159C29.4303 28.7401 28.4284 30.4524 26.979 30.9355C25.1601 31.5395 23.1778 30.7934 22.2825 29.1237C21.3659 27.4043 21.8207 25.3083 23.3696 24.1004C24.4709 23.2336 26.1548 23.0062 26.8724 23.6883Z" fill="#3EAFF8"></path>
  <path d="M7.19121 44.2081C7.14858 45.5368 7.042 46.8299 6.42386 48.0307C5.55703 49.7146 3.86601 50.4038 2.08973 49.7643C0.690022 49.2598 0.178453 48.0946 0.0505607 46.7517C-0.0915418 45.2881 0.0647711 43.8386 0.533709 42.4318C0.675812 41.9913 0.89607 41.6289 1.37922 41.4939C1.80553 41.3732 2.02579 41.5295 1.98315 41.9629C1.93342 42.4602 1.77711 42.9505 1.75579 43.4408C1.71316 44.7978 1.58527 46.1691 1.74158 47.5049C1.9121 48.9472 3.05603 49.5938 4.2639 49.1817C4.93889 48.9472 5.32256 48.4143 5.53572 47.782C6.01176 46.3752 6.2036 44.9612 5.66361 43.4976C5.49309 43.0287 5.50019 42.446 5.59256 41.9416C5.63519 41.7 6.04729 41.4087 6.32439 41.3661C6.4878 41.3447 6.84306 41.7426 6.8928 41.9913C7.05621 42.7231 7.09884 43.4692 7.19121 44.2081Z" fill="#3EAFF8"></path>
  <path d="M38.9653 47.3343C38.6598 47.789 38.4324 48.1585 38.1695 48.4995C37.4448 49.4445 36.5141 49.9774 35.2778 49.8353C34.5033 49.7429 33.9917 49.3166 33.8212 48.5635C33.5654 47.3769 33.807 46.304 34.6809 45.4301C35.1641 44.9469 35.7609 44.7267 36.4217 44.9754C36.983 45.1885 37.3027 45.6432 37.3596 46.2543C37.4306 47.0074 37.0469 47.4977 36.4146 47.8245C36.1446 47.9666 35.8391 48.0448 35.5691 48.194C35.4057 48.2864 35.2849 48.4569 35.1499 48.599C35.3062 48.7198 35.4483 48.8974 35.6259 48.9613C36.3222 49.2029 36.9119 48.94 37.4164 48.4782C38.1767 47.7748 38.5603 46.8582 38.8659 45.8919C38.9653 45.5722 39.1785 45.288 39.3348 44.9896C39.4272 45.0038 39.5266 45.018 39.619 45.0251C39.7114 45.5722 39.7966 46.1193 39.889 46.6664C39.9387 46.9648 39.9814 47.2774 40.0808 47.5616C40.1306 47.6966 40.2869 47.8387 40.4219 47.8885C40.4787 47.9098 40.6563 47.7179 40.7132 47.5972C40.9761 47.0643 41.175 46.4959 41.4663 45.9772C42.0134 44.9896 42.7239 44.1938 43.9958 44.343C44.3084 44.3785 44.6565 44.5633 44.891 44.7835C45.2178 45.089 45.1468 45.6006 44.8271 45.8564C44.5144 46.1051 44.0313 46.0482 43.74 45.7214C43.3137 45.2383 43.0081 45.1814 42.5747 45.6717C42.1626 46.1406 41.8287 46.6948 41.5303 47.249C41.1608 47.9453 40.8837 48.6842 40.5285 49.3877C40.429 49.5795 40.1661 49.814 39.9956 49.8069C39.825 49.7997 39.5906 49.5298 39.5195 49.3237C39.3135 48.7056 39.1714 48.0732 38.9653 47.3343ZM34.7449 47.8103C34.8443 47.8672 34.9509 47.924 35.0504 47.9737C35.427 47.6611 35.8746 47.4053 36.173 47.0287C36.4856 46.6451 36.2796 46.0269 35.8888 45.8422C35.4838 45.6504 34.9722 45.899 34.8515 46.439C34.752 46.8866 34.7733 47.3556 34.7449 47.8103Z" fill="#3EAFF8"></path>
  <path d="M32.7839 5.88303C33.6934 5.49224 33.7431 4.77462 33.5513 3.89359C33.9065 4.15648 34.1552 4.37674 34.4252 4.53305C34.9155 4.81015 35.4342 4.71068 35.6544 4.327C35.8818 3.92201 35.7397 3.46017 35.2139 3.18307C34.6952 2.91308 34.141 2.72124 33.5868 2.38019C34.1481 2.2523 34.7094 2.12441 35.3418 1.9752C34.8018 1.10127 33.9137 0.8668 32.9047 0.547069C33.9847 0.220232 34.9226 0.0923394 35.8747 0.326809C36.507 0.483122 36.6349 0.774432 36.4573 1.39258C36.3862 1.63415 36.3081 1.87573 36.2797 2.1173C36.237 2.50098 36.3578 2.82782 36.8054 2.86334C37.2175 2.89887 37.3952 2.60756 37.4307 2.25941C37.4662 1.93967 37.4449 1.60573 37.4307 1.2789C37.3881 0.291284 37.8286 -0.0639736 38.7736 0.184706C38.9157 0.220232 39.0649 0.269968 39.2851 0.333914C38.8446 0.888115 39.0507 1.421 39.1786 1.98941C39.2993 2.50809 39.342 3.05518 39.3207 3.58807C39.2851 4.34832 38.8944 4.95225 38.2478 5.33593C36.5283 6.34486 34.681 6.1175 32.7839 5.88303ZM35.7539 4.8741C35.7965 4.96646 35.832 5.05172 35.8747 5.14409C36.5283 4.98067 37.2246 4.89541 37.8215 4.61121C38.1767 4.44068 38.4751 3.97885 38.6315 3.58096C38.8233 3.09071 38.5178 2.69282 37.992 2.58624C37.8783 3.92911 36.9618 4.54016 35.7539 4.8741ZM38.802 0.845484C38.5817 0.696276 38.4112 0.497332 38.3046 0.525753C38.1554 0.568384 38.0488 0.774432 37.9209 0.90943C38.063 1.02311 38.198 1.21495 38.3544 1.23627C38.4609 1.24337 38.603 1.02311 38.802 0.845484Z" fill="#3EAFF8"></path>
  <path d="M10.3743 16.3773C10.3033 15.0913 11.0919 14.3879 12.3851 14.5655C12.7048 14.6082 13.0174 14.6508 13.3798 14.7005C12.9535 13.8408 12.0937 13.4429 10.9569 13.6561C11.1772 13.2156 11.2695 12.7182 11.5253 12.5974C11.8095 12.4695 12.3211 12.5974 12.6124 12.7893C12.9677 13.0166 13.2021 13.4287 13.4792 13.7698C13.5929 13.9119 13.6853 14.0753 13.9269 14.2032C13.9411 13.8479 13.9127 13.4856 13.9908 13.1445C14.0548 12.8532 14.2466 12.5974 14.3745 12.3203C14.6445 12.4695 14.9358 12.5974 15.1845 12.775C15.3124 12.8674 15.3692 13.045 15.3905 13.0806C14.9926 13.5424 14.6445 13.9474 14.3034 14.3453C14.3532 14.4021 14.3958 14.459 14.4455 14.5158C14.6161 14.4234 14.7795 14.3169 14.9642 14.2458C15.4971 14.0398 16.0229 13.7627 16.5771 13.6703C17.5931 13.4998 18.1828 14.3097 17.7707 15.2903C16.8755 14.3097 15.8168 14.6082 14.7297 14.9066C15.4047 15.2832 16.4421 15.2903 16.3213 16.4342C16.2645 16.9458 15.7955 17.3721 15.0779 17.6278C15.2342 16.6829 14.95 15.9226 14.0832 15.3187C13.8629 15.9084 13.2519 16.3134 13.5787 17.0523C13.6071 17.1163 13.5929 17.2015 13.5858 17.2797C13.4792 18.5728 13.9837 19.667 14.6658 20.7186C14.7511 20.8465 14.6871 21.0738 14.6942 21.2586C14.5095 21.2586 14.275 21.3367 14.1471 21.2515C13.3514 20.7115 13.0458 19.7807 12.8824 18.9707C12.6408 17.7486 12.4064 16.4129 13.2661 15.2547C12.3637 14.9492 11.4898 15.2974 10.3743 16.3773Z" fill="#3EAFF8"></path>
  <path d="M12.8469 30.0261C12.4206 29.9125 12.0724 29.8769 11.7811 29.7206C11.6319 29.6425 11.5822 29.3654 11.4898 29.1735C11.6888 29.1096 11.909 28.9675 12.0938 29.003C12.719 29.1167 13.1951 29.884 13.1098 30.5448C13.0316 31.1559 12.5627 31.4756 11.7953 31.4543C10.5377 31.4116 9.57854 30.2819 9.73485 29.0385C9.84853 28.1291 10.8006 27.4967 11.8238 27.7454C12.3069 27.8662 12.8256 28.1007 13.1808 28.4417C14.14 29.3512 14.4313 30.5306 14.1685 31.8166C13.9908 32.6764 13.4011 33.1737 12.5627 33.3656C10.7367 33.7706 8.74013 32.5982 8.18593 30.8148C7.87331 29.7988 8.17172 28.8396 9.03855 28.2783C9.01723 28.5128 9.00302 28.6904 8.99592 28.8609C8.8325 30.9569 10.6656 32.5982 12.584 32.0937C13.0885 31.9587 13.4224 31.6532 13.5858 31.1559C13.9624 29.9977 13.2093 28.6335 12.0298 28.3635C11.4543 28.2357 10.8788 28.4346 10.6585 28.8467C10.4383 29.2517 10.5875 29.8911 10.9925 30.2677C11.4117 30.6656 12.1364 30.7935 12.5343 30.5093C12.6622 30.4098 12.7332 30.2038 12.8469 30.0261Z" fill="#3EAFF8"></path>
  <path d="M34.1908 26.0688C35.9031 26.0688 36.9689 27.5041 36.4786 29.0885C36.0452 30.4811 35.0789 31.49 33.9279 32.3427C33.5584 32.6127 33.3594 32.3427 33.1889 32.0727C32.9971 31.7671 33.1463 31.5824 33.4447 31.4545C34.1694 31.1419 34.745 30.6445 35.1571 29.9695C35.2494 29.8203 35.356 29.664 35.3702 29.5006C35.3915 29.2732 35.3276 29.0459 35.292 28.8114C35.1215 28.9322 34.9155 29.0175 34.7805 29.1738C34.3826 29.6427 34.0558 30.1756 33.6294 30.609C33.0042 31.2414 31.8745 31.085 31.4482 30.3106C31.3629 30.1614 31.4766 29.7919 31.6258 29.6498C32.0095 29.2732 32.4713 28.9819 32.8763 28.6338C33.0895 28.449 33.2955 28.2288 33.4305 27.9872C33.5016 27.8522 33.4163 27.6319 33.4021 27.4543C33.2316 27.497 33.0184 27.4898 32.8976 27.5893C32.5139 27.9091 32.1871 28.2927 31.8034 28.6125C31.4695 28.8967 31.1 29.1453 30.7305 29.3798C30.425 29.5645 30.1479 29.529 29.9916 29.1382C29.8495 28.7688 29.8992 28.4917 30.3327 28.3993C31.3274 28.1933 32.0663 27.6177 32.6631 26.822C33.0823 26.2891 33.6152 26.0191 34.1908 26.0688ZM35.4981 28.0156C35.5976 27.9091 35.9031 27.7243 35.9599 27.4827C36.0594 27.0777 35.3063 26.4809 34.7947 26.5022C34.411 26.5164 34.2618 26.7722 34.2689 27.1204C34.276 27.5893 34.7805 28.0298 35.4981 28.0156Z" fill="#3EAFF8"></path>
  <path d="M15.2485 9.83348C16.5629 8.51903 17.1313 8.30588 17.7921 8.81034C18.3321 9.22244 18.4884 10.2314 18.0905 10.9632C18.0408 10.7358 18.0266 10.544 17.9626 10.3806C17.9129 10.2527 17.7921 10.1532 17.7068 10.0466C17.6074 10.1319 17.4795 10.1958 17.4226 10.2953C17.0603 10.9277 17.2521 11.6879 17.8418 11.9366C17.6642 12.4411 17.3445 12.7679 16.7832 12.7395C15.4616 12.6755 15.3621 11.5387 14.9642 10.5582C14.7511 10.75 14.5664 10.9064 14.3958 11.0698C13.7351 11.6879 12.9464 11.9153 12.0582 11.8158C10.9996 11.695 10.4454 10.4872 11.1133 9.52796C11.1843 9.77664 11.2056 9.98269 11.298 10.1461C11.4046 10.3237 11.568 10.5653 11.7385 10.5937C11.9161 10.6222 12.243 10.48 12.3069 10.3308C12.4774 9.89743 12.6124 9.42849 12.6267 8.96666C12.6409 8.51903 12.2643 8.49772 11.9019 8.59719C12.1435 7.82984 12.8895 7.34669 13.7777 7.46037C15.1135 7.638 15.1916 8.70377 15.2485 9.83348ZM14.0193 8.02878C13.9482 8.00036 13.8701 7.96483 13.799 7.93641C13.664 8.14246 13.4651 8.32719 13.394 8.55456C13.1738 9.24376 12.9819 9.94006 12.8185 10.6506C12.783 10.8069 12.8895 10.9916 12.9322 11.1692C13.0885 11.0556 13.3301 10.9703 13.3798 10.8211C13.6214 10.0822 13.8203 9.32191 14.0122 8.56877C14.0548 8.39825 14.0193 8.21351 14.0193 8.02878ZM16.3569 11.9295C16.9821 11.5671 17.3445 10.1106 16.9821 9.40007C16.3355 9.87611 15.9661 11.354 16.3569 11.9295ZM14.9145 9.70559C14.9429 9.68428 14.9785 9.66296 15.0069 9.64164C14.8648 9.42138 14.7298 9.19402 14.5877 8.97376C14.41 9.1727 14.2182 9.37165 14.0548 9.5848C13.9979 9.65585 13.9837 9.76243 13.9766 9.8619C13.9553 10.1603 13.7208 10.615 14.1543 10.6719C14.3674 10.7003 14.6516 10.2456 14.8861 9.9898C14.9429 9.93295 14.9074 9.80506 14.9145 9.70559ZM15.6179 11.29C15.7955 10.9845 15.9376 10.8353 15.9732 10.6719C16.0229 10.4232 15.9874 10.1532 15.9874 9.89743C15.8808 9.90453 15.7103 9.86901 15.689 9.91164C15.5611 10.1745 15.4403 10.4445 15.3763 10.7216C15.355 10.8424 15.4829 10.9845 15.6179 11.29Z" fill="#3EAFF8"></path>
  <path d="M18.1402 25.1734C17.1384 25.3297 15.9802 24.7044 15.5042 23.7452C15.0708 22.8784 15.2413 21.9405 15.9518 21.2797C16.2147 21.4147 16.4776 21.5924 16.7618 21.6776C16.9039 21.7203 17.1029 21.5995 17.2734 21.5497C17.2165 21.3863 17.2094 21.159 17.0958 21.0666C16.7192 20.7682 16.2929 20.5408 15.9092 20.2566C15.1418 19.674 15.1489 19.134 15.9092 18.5514C16.1863 18.3453 16.4776 18.1606 16.7476 17.9403C17.3231 17.4785 17.4297 17.2298 17.3871 16.5122C18.1544 16.7822 18.5381 17.6135 18.2255 18.3311C18.1544 18.4874 18.062 18.6366 17.9555 18.7716C17.181 19.809 17.1739 19.809 18.0905 20.7398C18.4315 21.0808 18.5168 21.4574 18.2894 21.8908C18.1686 22.1324 18.0265 22.3597 17.8915 22.5871C17.1952 23.7452 17.245 24.2284 18.1402 25.1734Z" fill="#3EAFF8"></path>
  <path d="M25.1387 22.5445C25.1672 21.9619 25.1601 21.4219 25.224 20.8961C25.2524 20.6333 25.4016 20.3846 25.494 20.1359C25.7072 20.2212 25.9345 20.2993 26.1406 20.4059C26.2187 20.4485 26.2685 20.5764 26.3466 20.5977C26.5456 20.6546 26.844 20.7611 26.9363 20.6759C27.0642 20.5622 27.1424 20.1856 27.0571 20.0791C26.8156 19.7806 26.4958 19.5106 26.1619 19.3117C25.0322 18.6438 24.8332 17.8978 25.5082 16.7681C25.8493 16.967 26.1761 17.2015 26.5313 17.3649C27.0358 17.5994 27.2632 17.9546 27.2205 18.5017C27.1992 18.7859 27.1637 19.0843 27.2134 19.3614C27.2348 19.5035 27.4337 19.6101 27.5474 19.738C27.6469 19.6172 27.789 19.5106 27.8316 19.3685C27.8813 19.2122 27.8316 19.0275 27.8316 18.857C27.8316 18.2601 28.1016 18.0612 28.67 18.2459C28.7268 18.2672 28.7766 18.2957 28.8263 18.317C29.1531 18.4662 29.48 18.6083 29.9205 18.8072C29.6363 18.9778 29.4373 19.1128 29.2313 19.2193C28.9542 19.3543 28.6131 19.397 28.4 19.5959C28.1868 19.7877 27.9382 20.1927 28.0092 20.3704C28.1087 20.6119 28.5066 20.8251 28.7908 20.8535C28.9684 20.8677 29.1816 20.5196 29.3805 20.3348C29.3805 20.2496 29.3805 20.1714 29.3734 20.0862C29.9205 20.5196 30.4676 20.953 31.0147 21.3864C31.0005 21.4717 30.9863 21.564 30.9649 21.6493C30.3326 21.8127 29.7002 21.9832 28.9968 22.168C29.0039 21.7132 29.3521 21.2656 28.7481 21.223C28.4639 21.2017 28.1726 21.3153 27.8884 21.3651C27.9666 21.6067 28.0518 21.8482 28.1158 22.0969C28.1868 22.3669 28.2366 22.6369 28.2934 22.914C27.9879 22.8998 27.6469 22.9637 27.3769 22.8572C27.0287 22.7293 26.9506 22.3882 27.0784 22.033C27.114 21.9264 27.2134 21.834 27.2276 21.7274C27.2561 21.5427 27.249 21.3509 27.2561 21.159C27.0642 21.2372 26.8369 21.2727 26.6877 21.4006C26.4532 21.5924 26.2898 21.8766 26.0411 22.0543C25.7569 22.2603 25.3945 22.4095 25.1387 22.5445Z" fill="#3EAFF8"></path>
  <path d="M18.7513 22.9141C18.936 23.6388 19.476 23.9159 20.0728 24.1859C21.0036 24.598 21.3162 25.3938 21.0533 26.4951C20.7052 27.9516 19.2771 28.7971 17.5931 28.5413C16.2005 28.3282 15.014 26.9214 15.1206 25.5785C15.1348 25.4009 15.2413 25.2375 15.3053 25.0669C15.4616 25.1522 15.6463 25.2019 15.7813 25.3227C16.705 26.1398 17.7779 26.2677 18.9005 25.948C19.1847 25.8698 19.4902 25.5785 19.611 25.3085C19.6607 25.1877 19.3126 24.8254 19.0852 24.6619C18.2823 24.0935 18.1829 23.7169 18.7513 22.9141ZM18.8934 27.2269C18.8721 27.71 19.0071 27.8521 19.3765 27.7598C19.8739 27.6319 20.5347 26.7793 20.4849 26.2677C20.4707 26.1327 20.2718 25.9053 20.1723 25.9124C19.5968 25.948 18.9147 26.6798 18.8934 27.2269Z" fill="#3EAFF8"></path>
  <path d="M35.4909 21.2513C35.0291 21.8624 35.1499 22.2887 35.903 22.5729C35.292 22.516 34.8444 22.6013 34.8941 23.3402C34.6667 23.0205 34.4749 22.6795 34.212 22.3881C33.9207 22.0613 33.5086 21.6421 33.0965 21.9761C32.6631 22.3242 33.0112 22.8145 33.2954 23.1342C33.6152 23.5037 34.0202 23.7879 34.411 24.1289C33.5299 24.0507 33.7218 24.676 33.7999 25.3368C33.331 24.8963 33.0112 24.1929 32.3931 25.0668C32.5565 24.3563 32.6986 23.7736 32.8194 23.1839C32.8478 23.0418 32.8478 22.8571 32.791 22.7292C32.6986 22.5374 32.5636 22.2958 32.386 22.2318C32.251 22.1821 31.9455 22.3384 31.8673 22.4805C31.6542 22.8926 31.4978 23.3473 31.3557 23.795C31.2918 24.001 31.3273 24.2426 31.2634 24.5197C31.0005 23.8944 30.6594 23.6884 30.0413 24.3989C30.1905 23.9229 30.3681 23.6529 30.3042 23.4539C30.2473 23.2834 29.9205 23.2052 29.686 23.0773C30.1408 22.9139 30.6097 22.8074 31.0218 22.6013C32.1515 22.04 32.2155 21.1021 31.1994 20.3703C30.8797 20.1429 30.5458 19.944 30.1692 19.6953C30.9436 19.4964 30.9436 19.4964 31.0076 18.729C31.2278 18.9066 31.4055 19.1624 31.6115 19.1837C31.8034 19.205 32.0165 18.9706 32.3505 18.7716C32.2652 19.269 32.1941 19.6527 32.1302 20.0363C32.0165 20.6687 32.2084 21.1732 32.5707 21.1945C32.9189 21.2158 33.2031 20.7327 33.196 20.1074C33.1889 19.7877 33.1604 19.4679 33.132 18.9706C33.5654 19.5532 33.9704 19.5816 34.4252 19.1482C34.212 19.9866 34.212 19.9866 34.9438 20.2779C34.6241 20.349 34.4038 20.3774 34.2049 20.4484C33.9349 20.5479 33.6507 20.6332 33.4304 20.8037C33.2883 20.9103 33.1676 21.1803 33.2031 21.3295C33.2386 21.4716 33.5157 21.6492 33.672 21.6421C34.1267 21.6137 34.5744 21.5071 35.022 21.4076C35.1925 21.3934 35.3417 21.3082 35.4909 21.2513Z" fill="#3EAFF8"></path>
  <path d="M12.243 23.5536C12.3425 23.6601 12.4206 23.8307 12.5343 23.8662C12.7119 23.923 12.989 23.9728 13.1027 23.8875C13.2519 23.7738 13.3798 23.4967 13.3514 23.312C13.3017 22.9994 13.1596 22.6867 12.9961 22.4096C12.1293 20.946 11.1417 19.5392 10.9925 17.7487C10.5733 18.3526 10.6017 19.0134 10.7722 19.6457C10.9996 20.5197 11.3193 21.3652 11.5396 22.2391C11.6177 22.5517 11.6106 22.9638 11.4614 23.2267C11.3335 23.4541 10.957 23.653 10.6799 23.6601C10.3104 23.6744 10.0759 23.383 10.0759 22.9638C10.9285 22.9354 11.092 22.7649 10.9712 21.891C10.9143 21.4789 10.758 21.0739 10.6586 20.6689C10.5093 20.0294 10.3814 19.3829 10.1115 18.7079C10.0262 19.0773 9.8983 19.4468 9.87699 19.8234C9.83436 20.4131 9.8983 21.017 9.84857 21.6068C9.82725 21.9194 9.7562 22.3031 9.55015 22.502C9.3441 22.701 8.932 22.8288 8.6478 22.772C8.43464 22.7294 8.28544 22.3599 8.17175 22.0899C9.11674 22.2462 9.38673 22.0473 9.45778 21.1165C9.50752 20.4842 9.4862 19.8447 9.61409 19.2265C9.84856 18.0897 10.5164 17.2229 11.5751 16.4626C10.9854 18.3597 11.8451 19.7452 12.7688 21.1165C13.2164 21.7844 13.6924 22.4523 14.0335 23.1699C14.4385 24.0296 13.9482 24.9107 13.1027 24.9107C12.8043 24.9107 12.4206 24.7188 12.2359 24.4914C12.0654 24.2854 12.108 23.9017 12.0512 23.5962C12.1293 23.582 12.1862 23.5678 12.243 23.5536Z" fill="#3EAFF8"></path>
  <path d="M26.6948 34.6944C26.8653 34.2752 27.0074 33.8347 27.2063 33.4297C27.455 32.9252 27.789 32.6837 28.4497 32.8613C29.48 33.1384 30.4605 32.8471 31.3628 32.2929C31.846 31.9945 32.1373 32.1152 32.2865 32.6552C32.457 33.2734 32.2439 33.7992 31.8531 34.2539C30.8086 35.4547 29.416 35.881 27.8884 35.9094C27.1495 35.9236 26.7516 35.4333 26.6948 34.6944ZM30.9365 33.2236C30.3681 33.3444 29.8494 33.4368 29.3379 33.5789C29.1958 33.6215 29.0252 33.7849 28.9897 33.9271C28.9116 34.2539 28.9045 34.5949 28.8618 34.9857C29.6931 35.007 30.3681 34.7726 30.8513 34.1189C31.0502 33.8489 31.1852 33.515 30.9365 33.2236Z" fill="#3EAFF8"></path>
  <path d="M13.4224 0.277289C12.7119 0.895435 12.7332 1.06596 13.4864 1.542C13.6711 1.66279 13.8559 1.79068 14.0406 1.91857C14.0264 1.96831 14.0051 2.01805 13.9909 2.07489C13.7493 2.02515 13.5077 1.96831 13.259 1.93278C12.719 1.84752 12.4917 2.0962 12.6409 2.62198C12.7332 2.94171 12.8611 3.24723 12.9677 3.55986C12.918 3.58828 12.8682 3.6167 12.8256 3.64512C12.6267 3.41065 12.4348 3.16197 12.2217 2.93461C11.8167 2.47988 11.4472 2.56514 11.2625 3.14776C11.163 3.45328 11.092 3.76591 11.0067 4.07143C10.957 4.07143 10.9072 4.07853 10.8575 4.07853C10.822 3.87248 10.8149 3.66644 10.758 3.46749C10.6728 3.19039 10.6088 2.7925 10.417 2.69303C10.2322 2.60067 9.87698 2.81382 9.61409 2.93461C9.44357 3.00566 9.30857 3.14776 9.04568 3.18329C9.18068 2.98434 9.32989 2.7925 9.44357 2.57935C9.55014 2.3733 9.60698 2.13883 9.68514 1.91147C9.45067 1.86173 9.22331 1.77647 8.98884 1.76937C8.69753 1.76226 8.41332 1.82621 8.12201 1.86173C8.1078 1.812 8.1007 1.76226 8.08649 1.70542C8.30675 1.61305 8.52701 1.52069 8.74016 1.42832C9.50041 1.10859 9.54304 0.8457 8.86805 0.284395C9.53593 0.156502 10.1257 0.0570296 10.6159 0.660966C10.9285 1.05175 11.3904 1.05885 11.7172 0.682281C12.1861 0.142291 12.7403 0.170712 13.4224 0.277289Z" fill="#3EAFF8"></path>
  <path d="M32.8336 10.1036C31.3984 10.1462 30.2118 9.36466 29.8282 8.16389C29.679 7.70916 29.7358 7.43206 30.2971 7.41075C30.6168 7.39654 30.9508 7.3468 31.2492 7.23312C31.7466 7.04839 32.1942 6.82813 32.6276 7.38943C32.72 7.51022 33.1463 7.46048 33.3665 7.36812C33.8923 7.14786 34.1836 7.33259 34.4394 7.78732C35.1996 9.1515 34.7947 9.93306 33.2386 10.0752C33.0823 10.0894 32.9331 10.0965 32.8336 10.1036ZM31.0716 8.1852C31.1639 8.76782 31.5973 9.10887 32.3576 9.20834C32.9047 9.2794 33.4305 9.25808 33.9065 8.68967C32.8834 8.51204 31.9881 8.34862 31.0716 8.1852Z" fill="#3EAFF8"></path>
  <path d="M37.5727 27.0564C37.388 26.2535 36.8835 25.8982 36.2725 25.6425C36.0593 25.5572 35.8533 25.4506 35.6614 25.3227C35.292 25.0883 35.1712 24.7472 35.3062 24.3209C35.4412 23.8875 35.7538 23.7099 36.1872 23.7383C36.4146 23.7525 36.642 23.7951 36.9191 23.8307C36.8906 23.6388 36.8622 23.4612 36.848 23.2836C36.8125 22.8501 36.9119 22.4523 37.3525 22.2888C37.8285 22.1112 38.2264 22.2888 38.4893 22.7151C38.9227 23.4114 38.944 24.1646 38.7593 24.939C38.5888 25.7277 38.2264 26.4027 37.5727 27.0564Z" fill="#3EAFF8"></path>
  <path d="M15.9731 31.6817C16.0655 31.6533 16.1224 31.6106 16.1721 31.6177C17.2805 31.8238 17.9342 31.3548 18.3392 30.3104C18.6518 29.5146 19.0212 29.472 20.2504 29.9267C20.222 29.607 20.1794 29.3441 20.1723 29.0741C20.1723 28.9391 20.2007 28.7402 20.286 28.6833C20.3712 28.6265 20.5559 28.7046 20.6909 28.7473C20.7549 28.7686 20.7904 28.9107 20.833 28.9107C21.7354 28.8325 21.4228 29.5715 21.5365 29.9907C21.6217 30.3033 21.437 30.4454 21.0888 30.3104C20.4565 30.0617 20.4565 30.1114 20.4565 30.7651C20.4565 31.1204 20.3144 31.5325 20.0941 31.8096C19.412 32.6906 17.7992 33.053 16.776 32.6124C16.3142 32.4064 16.1081 32.1861 15.9731 31.6817Z" fill="#3EAFF8"></path>
  <path d="M11.2553 25.401C10.5945 25.7633 10.559 26.7012 9.9764 27.2483C9.65667 27.5538 9.23036 27.3904 8.90353 27.0565C8.77564 26.9286 8.54117 26.8291 8.35644 26.8362C7.88039 26.8504 7.50382 26.7225 7.36882 26.2394C7.24093 25.7846 7.4754 25.4862 7.86618 25.2518C8.02249 25.1523 8.08644 24.9178 8.20012 24.7473C8.37775 24.4773 8.51275 24.0723 8.75432 23.987C9.003 23.9018 9.35826 24.1291 9.67088 24.2215C9.87693 24.2855 10.0901 24.4276 10.289 24.4205C10.829 24.4134 11.2624 24.7473 11.2553 25.401ZM9.9693 25.8344C9.9764 25.742 9.9764 25.6568 9.98351 25.5644C9.77035 25.401 9.53589 25.1026 9.34405 25.1239C9.12379 25.1452 8.93906 25.4649 8.74011 25.6568C8.91774 25.8415 9.08116 26.1612 9.2801 26.1825C9.49326 26.211 9.73483 25.9623 9.9693 25.8344Z" fill="#3EAFF8"></path>
  <path d="M36.4217 10.3451C37.6296 10.203 38.5888 9.82639 39.2993 8.79614C39.3774 9.06614 39.4627 9.20114 39.4556 9.33613C39.4201 10.4445 39.3987 11.56 39.2993 12.6613C39.2495 13.244 39.0222 13.315 38.539 12.974C37.6082 12.3274 36.8764 11.5245 36.4217 10.3451Z" fill="#3EAFF8"></path>
  <path d="M4.45575 12.8177C4.53391 10.7786 5.59257 9.74832 7.42569 9.86201C8.07226 9.90464 8.63356 10.7999 8.38488 11.3967C7.84489 12.7183 6.66544 13.308 5.27284 12.9741C5.01705 12.9172 4.75416 12.8746 4.45575 12.8177ZM5.67783 10.8425C5.23731 11.2333 5.20889 11.7164 5.62099 12.1996C6.00467 12.6472 6.40255 12.6827 6.77202 12.3559C6.41676 11.8585 6.06151 11.3683 5.67783 10.8425ZM6.56597 10.672C6.86439 11.0272 7.12017 11.3683 7.41859 11.6596C7.48964 11.7235 7.77384 11.6738 7.8591 11.5814C7.94437 11.4891 7.97279 11.2546 7.91594 11.1267C7.78805 10.8567 7.61753 10.5938 7.41859 10.3736C7.32622 10.267 7.10596 10.2031 6.97096 10.2386C6.84307 10.267 6.75781 10.4517 6.56597 10.672Z" fill="#3EAFF8"></path>
  <path d="M16.5771 30.7154C15.6037 30.7225 14.7369 30.0618 14.609 29.0457C14.4527 27.781 13.7351 27.1629 12.5769 26.8715C12.2572 26.7934 11.7314 26.8005 11.8025 26.2889C11.8806 25.7774 12.378 25.8129 12.7759 25.7987C13.4296 25.7774 13.934 26.0758 14.2537 26.63C14.4314 26.9426 14.5522 27.2907 14.6587 27.6389C14.9358 28.5484 14.9287 28.5484 15.895 28.6265C16.5558 28.6763 17.3089 29.401 17.38 30.0475C17.4297 30.4667 17.1313 30.7083 16.5771 30.7154ZM16.8826 29.8628C16.8969 29.7847 16.9111 29.7136 16.9253 29.6354C16.5771 29.4223 16.2361 29.1878 15.8666 29.0315C15.7956 28.996 15.5966 29.2518 15.4545 29.3797C15.7885 29.6212 16.1153 29.8841 16.4705 30.0902C16.5345 30.1328 16.7334 29.9481 16.8826 29.8628Z" fill="#3EAFF8"></path>
  <path d="M25.3732 9.32202C25.9203 9.45702 26.4106 9.5707 26.9577 9.7057C26.9293 9.8407 26.8937 10.0325 26.8582 10.2173C27.7108 10.5867 28.3929 10.2457 29.1176 9.04492C29.2668 9.74833 29.1816 10.3452 28.7126 10.8354C28.13 11.4465 27.384 11.5886 26.5953 11.3896C26.1832 11.283 25.8564 11.2262 25.6574 11.6809C25.0251 11.1836 24.9185 10.0894 25.3732 9.32202Z" fill="#3EAFF8"></path>
  <path d="M27.7677 23.6956C28.94 23.9869 29.6932 24.9319 29.6363 25.9834C29.5937 26.7223 29.1105 27.1913 28.4285 27.1629C27.7322 27.1344 27.3201 26.6158 27.384 25.8555C27.4053 25.6495 27.4693 25.4434 27.5261 25.2445C27.5972 24.9887 27.7179 24.74 27.7606 24.4771C27.8032 24.2355 27.7677 23.9869 27.7677 23.6956ZM29.0892 25.2516C28.8334 24.9745 28.6558 24.7755 28.4782 24.5837C28.3645 24.8111 28.1869 25.0384 28.1727 25.2729C28.1656 25.415 28.4071 25.685 28.5492 25.6921C28.6913 25.6992 28.8477 25.4576 29.0892 25.2516Z" fill="#3EAFF8"></path>
  <path d="M10.3885 13.7557C10.3956 14.381 10.0759 14.8286 9.55722 14.8925C9.06696 14.9565 8.59802 14.5799 8.44171 14.0115C8.27119 13.3862 8.46303 12.832 8.79697 12.3276C8.86091 12.2352 9.08828 12.1641 9.20907 12.2068C9.84853 12.3986 10.3814 13.1162 10.3885 13.7557Z" fill="#3EAFF8"></path>
  <path d="M29.6292 30.5166C30.0271 30.5948 30.3326 30.6019 30.5742 30.7298C30.7589 30.8221 30.9792 31.0637 30.9863 31.2555C31.0005 31.4758 30.8797 31.8168 30.7021 31.9234C30.0058 32.3497 29.2455 32.3639 28.4924 32.0584C28.059 31.8808 28.0306 31.0992 28.464 30.8861C28.8476 30.68 29.2953 30.6161 29.6292 30.5166Z" fill="#3EAFF8"></path>
  <path d="M28.805 7.36812C28.8263 7.99337 28.6913 8.65415 28.0874 9.21545C27.8103 8.79625 26.9435 8.78204 27.4692 8.00758C26.8653 7.58128 26.4319 7.63812 25.6859 8.22784C25.5793 7.72338 25.7711 7.34681 26.1548 7.09103C26.6948 6.72867 27.2845 6.81393 27.86 7.03419C28.13 7.14076 28.4071 7.22602 28.805 7.36812Z" fill="#3EAFF8"></path>
  <path d="M38.6172 6.68604C39.2496 7.04129 39.1927 7.52444 39.0435 7.98627C38.738 8.93125 37.2104 9.79808 36.2441 9.57782C36.031 9.52809 35.8676 9.27941 35.6757 9.12309C35.8818 8.97389 36.0736 8.77494 36.301 8.68257C36.706 8.52626 37.1607 8.49784 37.5515 8.32021C38.1909 8.0289 38.667 7.56707 38.6172 6.68604Z" fill="#3EAFF8"></path>
  <path d="M7.67437 8.19229C7.5749 8.90991 7.36885 9.06623 6.72939 8.90281C6.00466 8.71807 5.51441 8.22072 5.57125 7.60968C5.59967 7.31126 5.79861 6.87074 6.02598 6.79259C6.32439 6.68601 6.84307 6.75706 7.04912 6.96311C7.35464 7.26863 7.47543 7.77309 7.67437 8.19229Z" fill="#3EAFF8"></path>
  <path d="M30.425 25.1309C31.3274 25.1806 31.91 25.7774 31.8176 26.5306C31.7537 27.0492 31.3131 27.369 30.7945 27.2837C30.3255 27.2056 30.0768 26.8077 30.1905 26.2961C30.2332 26.0901 30.3255 25.8982 30.3682 25.6922C30.3966 25.5074 30.4037 25.3156 30.425 25.1309Z" fill="#3EAFF8"></path>
  <path d="M16.1295 5.02344C16.7831 5.54211 17.451 6.03947 18.0905 6.57946C18.4529 6.88498 18.325 7.28287 18.1118 7.62391C18.0621 7.70207 17.7921 7.75891 17.7352 7.70207C16.9679 6.98445 16.3853 6.13184 15.9163 5.20817C15.9874 5.14422 16.0584 5.08738 16.1295 5.02344Z" fill="#3EAFF8"></path>
  <path d="M30.155 16.8676C30.1408 17.3508 29.75 17.7203 29.2456 17.7061C28.7411 17.6918 28.3929 17.3295 28.4072 16.8108C28.4214 16.3206 28.8264 15.9298 29.2953 15.944C29.7642 15.9653 30.1621 16.3916 30.155 16.8676Z" fill="#3EAFF8"></path>
  <path d="M15.7529 41.7852C15.76 41.2239 16.1792 40.7834 16.6766 40.8189C17.1455 40.8473 17.3587 41.1315 17.3587 41.5791C17.3516 42.112 16.8968 42.6307 16.4705 42.6236C16.094 42.6165 15.7458 42.2115 15.7529 41.7852Z" fill="#3EAFF8"></path>
  <path d="M35.5123 7.2402C36.1162 7.06257 36.6704 6.87073 37.2459 6.74284C37.4306 6.70021 37.6509 6.82099 37.857 6.87073C37.7788 7.06967 37.7646 7.36098 37.6154 7.45335C37.2743 7.68071 36.8836 7.88676 36.4857 7.97913C35.8036 8.13544 35.6331 7.97202 35.5123 7.2402Z" fill="#3EAFF8"></path>
  <path d="M30.1124 12.7609C30.1195 13.2369 29.7997 13.5638 29.3379 13.5638C28.869 13.5709 28.535 13.2441 28.535 12.7893C28.5279 12.3204 28.8548 11.9935 29.3166 11.9864C29.7784 11.9793 30.1124 12.2991 30.1124 12.7609Z" fill="#3EAFF8"></path>
  <path d="M28.5066 14.2174C28.4924 14.6721 28.1939 14.9563 27.7321 14.9421C27.2845 14.9279 26.9932 14.6153 27.0074 14.1606C27.0216 13.7343 27.384 13.3861 27.789 13.4003C28.1939 13.4287 28.5137 13.784 28.5066 14.2174Z" fill="#3EAFF8"></path>
  <path d="M4.66892 7.6665C4.69024 8.4907 5.07392 9.02358 5.7418 9.37173C5.10944 9.71278 4.56945 9.62752 4.25683 9.16569C3.9442 8.68964 4.06499 8.14965 4.66892 7.6665Z" fill="#3EAFF8"></path>
  <path d="M26.6593 15.0771C26.6309 15.4963 26.4177 15.7521 25.9843 15.7592C25.558 15.7663 25.3022 15.539 25.2809 15.1055C25.2525 14.6792 25.5509 14.3737 25.9843 14.3879C26.4106 14.4092 26.6309 14.6437 26.6593 15.0771Z" fill="#3EAFF8"></path>
  <path d="M25.9488 25.9622C26.5101 26.0758 26.8724 26.3103 26.8866 26.8645C26.9008 27.234 26.6877 27.504 26.3253 27.4116C26.1193 27.3619 25.8777 27.0777 25.828 26.8645C25.764 26.6087 25.8919 26.3032 25.9488 25.9622Z" fill="#3EAFF8"></path>
  <path d="M7.95853 14.9989C7.50381 15.1197 7.12723 15.0344 6.9425 14.5584C6.76487 14.1037 6.99224 13.6774 7.51091 13.4358C7.65301 13.9332 7.79512 14.4305 7.95853 14.9989Z" fill="#3EAFF8"></path>
  <path d="M5.64938 3.7801C5.23017 4.12825 4.81097 4.47641 4.39887 4.82456C4.32072 4.78193 4.24967 4.7393 4.17151 4.70377C4.24256 4.42667 4.22835 4.02878 4.40598 3.88668C4.69729 3.65932 5.1236 3.60958 5.49306 3.48169C5.5428 3.58116 5.59253 3.68063 5.64938 3.7801Z" fill="#3EAFF8"></path>
  <path d="M4.0578 14.8853C4.68305 15.5318 5.34383 15.5389 6.07566 15.3542C5.7133 15.816 5.01699 16.1429 4.65463 16.0292C4.18569 15.8729 4.06491 15.4892 4.0578 14.8853Z" fill="#3EAFF8"></path>
  <path d="M31.1284 15.0274C31.2563 15.2619 31.4978 15.5105 31.4694 15.7237C31.4481 15.9084 31.1071 16.1997 30.9294 16.1855C30.7376 16.1713 30.4321 15.8587 30.4321 15.6669C30.425 15.4537 30.695 15.2334 30.8513 15.0132C30.9365 15.0132 31.0289 15.0203 31.1284 15.0274Z" fill="#3EAFF8"></path>
  <path d="M16.9821 1.62005C17.2592 1.57742 17.5363 1.49927 17.8134 1.49927C17.9768 1.49927 18.2326 1.59164 18.2823 1.70532C18.3534 1.87584 18.3321 2.16005 18.2255 2.29504C18.1473 2.38741 17.8347 2.35899 17.6713 2.28794C17.4013 2.17426 17.1668 1.98242 16.9182 1.819C16.9466 1.74795 16.9679 1.684 16.9821 1.62005Z" fill="#3EAFF8"></path>
  <path d="M31.5547 13.926C31.2208 14.1675 31.0147 14.4375 30.8442 14.4162C30.6666 14.3949 30.4179 14.1107 30.3966 13.9118C30.3753 13.7697 30.6737 13.457 30.8229 13.457C31.0218 13.457 31.2208 13.6915 31.5547 13.926Z" fill="#3EAFF8"></path>
  <path d="M8.83249 8.69678C9.05275 9.0094 9.29432 9.20124 9.28011 9.37177C9.2659 9.54229 8.9959 9.81228 8.83959 9.80518C8.67617 9.79807 8.40618 9.54229 8.38486 9.37177C8.36354 9.20835 8.60512 9.01651 8.83249 8.69678Z" fill="#3EAFF8"></path>
  <path d="M4.58365 13.7341C5.03837 13.8407 5.486 13.9473 5.99046 14.0681C5.74178 14.4091 5.39363 14.5725 5.03127 14.4375C4.78969 14.3523 4.62628 14.0539 4.42023 13.8549C4.48417 13.8123 4.53391 13.7697 4.58365 13.7341Z" fill="#3EAFF8"></path>
  <path d="M29.3735 14.2173C29.6008 14.5441 29.8424 14.736 29.8211 14.8994C29.8069 15.0699 29.5369 15.347 29.3806 15.347C29.2172 15.347 28.9543 15.077 28.933 14.9065C28.9116 14.736 29.1532 14.537 29.3735 14.2173Z" fill="#3EAFF8"></path>
  <path d="M26.3182 12.6116C26.4319 12.7963 26.6522 12.9953 26.6237 13.1516C26.5953 13.3221 26.3324 13.45 26.169 13.5992C26.034 13.4429 25.7924 13.3008 25.7853 13.1374C25.7782 12.9669 25.9914 12.7821 26.1051 12.6045C26.169 12.6116 26.2472 12.6116 26.3182 12.6116Z" fill="#3EAFF8"></path>
  <path d="M9.56432 11.2829C9.32985 10.9774 9.07406 10.7927 9.08827 10.6222C9.10248 10.4516 9.37248 10.203 9.543 10.1888C9.678 10.1745 9.9551 10.4516 9.97642 10.6151C9.99773 10.7856 9.77037 10.9774 9.56432 11.2829Z" fill="#3EAFF8"></path>
  <path d="M27.5688 15.3401C27.789 15.674 28.0022 15.8517 28.0022 16.0222C28.0022 16.1643 27.7109 16.4414 27.6043 16.4201C27.4266 16.3774 27.2064 16.1643 27.1638 15.9867C27.1211 15.8588 27.3485 15.6598 27.5688 15.3401Z" fill="#3EAFF8"></path>
  <path d="M30.0058 11.7591C29.7997 11.4465 29.5866 11.2688 29.6008 11.1125C29.615 10.942 29.8423 10.7928 29.9773 10.6365C30.1337 10.7928 30.3681 10.9349 30.4108 11.1125C30.4392 11.2546 30.2118 11.4465 30.0058 11.7591Z" fill="#3EAFF8"></path>
  <path d="M31.6755 17.4145C31.3557 17.6134 31.1568 17.8337 31.0147 17.7982C30.8371 17.7555 30.7092 17.5069 30.5529 17.3506C30.7163 17.2227 30.8655 16.9953 31.036 16.9882C31.1994 16.974 31.3699 17.1942 31.6755 17.4145Z" fill="#3EAFF8"></path>
  <path d="M27.5119 13.0664C27.2916 12.7466 27.0713 12.569 27.0856 12.4198C27.1069 12.2635 27.3413 12.029 27.4976 12.0148C27.6326 12.0077 27.8742 12.2564 27.8955 12.4127C27.9168 12.5619 27.7108 12.7395 27.5119 13.0664Z" fill="#3EAFF8"></path>
</svg>
