<?xml version="1.0" encoding="UTF-8"?>
<svg xmlns="http://www.w3.org/2000/svg" width="123" height="40" viewBox="0 0 123 40" fill="none">
  <path d="M25.7566 0.0257582C25.8339 0.0772714 25.9112 0.128786 26.0142 0.180299C27.7141 0.772701 28.5126 2.18931 28.152 3.96651C27.9202 5.20283 27.3535 6.28461 26.5293 7.23761C26.2202 7.5982 25.7051 7.88152 25.2415 8.0103C24.4173 8.24211 23.9021 7.80425 23.8506 6.92852C23.7734 5.71796 24.9067 4.22408 26.0915 3.96651C26.5036 3.88924 26.9672 3.86349 26.9414 3.24533C26.9157 2.65293 26.7611 2.11205 26.143 2.00902C25.5506 1.90599 24.8809 1.93175 24.2885 2.11204C22.6401 2.57566 21.1719 3.47715 19.8841 4.58468C14.1404 9.60722 9.68449 15.557 6.92853 22.7173C5.97553 25.2157 5.25435 27.7914 5.43465 30.4958C5.48616 31.2943 5.6407 32.1185 5.87251 32.8912C6.5937 35.2608 8.44817 36.3168 10.6632 36.9607C12.6207 37.5274 14.6298 37.3213 16.5615 36.8834C21.0432 35.8789 25.4733 34.7714 29.955 33.7154C32.3503 33.1487 34.7972 32.8397 37.2441 32.7366C41.6742 32.5821 45.6665 33.7411 49.1694 36.5486C50.5087 37.6304 51.7966 38.7379 53.1102 39.8197C53.0586 39.8712 53.0071 39.9485 52.9556 40C52.7753 39.897 52.5693 39.7939 52.389 39.6652C50.0451 38.2486 47.521 37.4243 44.765 37.2956C42.3696 37.1925 40.2318 37.7592 38.841 39.9227C38.7637 39.8455 38.7122 39.8197 38.6607 39.7682C37.0123 37.1153 34.4624 36.0592 31.4746 35.7759C27.7656 35.4153 24.237 36.3168 20.6826 37.1668C17.4372 37.9652 14.1919 38.7379 10.8951 39.2531C7.10883 39.8197 3.24534 38.3773 1.31359 35.0032C0.61816 33.7669 0.283323 32.4276 0.128783 31.0367C0.103026 30.8049 0.0515132 30.5988 0 30.3928C0 29.6459 0 28.9247 0 28.1777C0.0515132 28.0489 0.103026 27.9202 0.128783 27.7656C0.360593 25.0612 1.10753 22.5113 2.18931 20.0386C4.61044 14.501 8.24212 9.83902 12.7753 5.89826C15.2222 3.76046 17.9009 1.93175 20.9916 0.824214C22.0477 0.437865 23.1552 0.257566 24.237 0C24.7779 0.0257566 25.2672 0.0257582 25.7566 0.0257582Z" fill="#3EAFF8"></path>
  <path d="M88.0103 27.8175C89.3754 27.9462 90.0708 27.5857 90.6117 26.4781C93.4707 20.6056 96.7933 15.0422 101.017 10.0454C103.593 6.98034 106.375 4.12136 109.723 1.85477C110.753 1.15934 111.809 0.541183 113.123 0.566939C113.999 0.592696 114.462 1.0048 114.514 1.85477C114.617 3.21987 114.153 4.40467 113.458 5.51221C113.278 5.82129 112.711 5.8728 112.299 6.02734C112.247 5.97583 112.222 5.92432 112.17 5.87281C112.376 5.4607 112.582 5.04859 112.737 4.63648C112.968 4.01833 113.226 3.37441 113.355 2.7305C113.484 2.11234 113.123 1.82901 112.582 2.16385C111.861 2.57595 111.166 3.06533 110.522 3.60622C106.813 6.8258 103.902 10.7408 101.326 14.8619C99.5235 17.7466 97.8751 20.7344 96.1751 23.6706C96.0464 23.9024 95.9691 24.1343 95.9433 24.4691C96.1752 24.3403 96.4327 24.2373 96.6388 24.057C98.6735 22.2025 100.786 20.4511 102.692 18.4678C104.752 16.33 106.581 13.9604 108.564 11.7453C108.847 11.4105 109.414 11.3332 109.852 11.1529C109.903 11.2302 109.955 11.2817 109.981 11.359C109.852 11.565 109.723 11.7968 109.569 12.0029C105.422 17.5663 100.734 22.5631 95.0934 26.6584C94.7585 26.916 94.4495 27.2766 94.2692 27.6629C93.3162 29.6719 92.5177 31.7325 92.1313 33.9218C92.0541 34.3596 92.0541 34.8233 92.1571 35.2611C92.3117 35.9308 92.8783 36.1368 93.4192 35.7763C93.8313 35.4929 94.2692 35.1581 94.5782 34.7718C95.3767 33.7673 96.1494 32.7627 96.8448 31.7067C98.7508 28.7962 100.554 25.7827 103.026 23.2843C104.108 22.1768 105.37 21.2495 106.607 20.3223C107.07 19.9617 107.714 19.7814 108.307 19.6526C109.363 19.4208 110.264 19.7299 110.856 20.7086C110.908 20.8117 111.011 20.8889 111.088 20.9662C111.14 20.9404 111.166 20.9404 111.166 20.9147C111.5 19.9874 112.247 19.9359 113.097 19.9874C113.896 20.039 114.694 19.9874 115.57 19.9874C115.441 20.245 115.364 20.4253 115.261 20.5798C113.072 24.4176 110.882 28.2296 108.719 32.0673C108.204 32.9688 107.766 33.896 107.354 34.8233C107.251 35.0293 107.354 35.3126 107.379 35.5702C107.637 35.5444 107.946 35.6217 108.152 35.4929C109.44 34.746 110.419 33.6642 111.294 32.5052C111.912 31.6809 112.531 30.8567 113.072 29.981C113.484 29.3113 113.947 29.0795 114.694 29.2856C114.694 29.3371 114.72 29.4144 114.694 29.4401C112.865 32.3764 110.882 35.2096 108.229 37.4504C107.457 38.0944 106.529 38.5837 105.654 39.0989C105.345 39.2792 104.958 39.3564 104.598 39.3822C103.49 39.4595 102.82 38.8413 102.692 37.6565C102.64 37.2444 102.692 36.8065 102.692 36.2914C102.511 36.4459 102.382 36.6005 102.228 36.7293C101.223 37.502 100.27 38.4034 99.1887 38.9958C97.2312 40.0776 95.6085 39.0731 95.5312 36.8323C95.5312 36.4202 95.5312 36.0081 95.5312 35.4929C95.3767 35.6475 95.2479 35.7505 95.1449 35.8535C94.3722 36.6262 93.6252 37.4247 92.8268 38.1459C92.4404 38.5065 91.9768 38.7898 91.4874 39.0216C89.5299 40.0004 87.7785 38.9443 87.6497 36.755C87.5467 34.9778 88.0618 33.3036 88.5769 31.6552C88.8603 30.728 89.1693 29.8265 89.5042 28.822C88.7572 28.8992 88.0876 28.9507 87.4437 29.0795C87.2634 29.1053 87.1088 29.3629 87.0058 29.5431C85.5892 31.9643 84.121 34.3339 82.0605 36.2656C81.056 37.1929 79.9227 37.9656 78.7894 38.764C78.3773 39.0474 77.8107 39.2019 77.3213 39.3307C75.6986 39.717 74.4365 38.8155 74.2047 37.1414C74.0244 35.7505 74.2563 34.3854 74.6941 33.0976C76.3683 28.3326 79.1242 24.3403 83.1165 21.2495C84.121 20.4768 85.2286 19.8329 86.5422 19.6526C88.4739 19.3693 89.5557 20.348 89.5557 22.3055C89.5557 24.0055 88.9633 25.5509 88.2679 27.0705C88.2421 27.2766 88.1391 27.5084 88.0103 27.8175ZM100.348 34.7202C100.322 35.4929 100.837 35.8535 101.558 35.5187C101.79 35.4157 101.996 35.2869 102.176 35.1066C102.717 34.5399 103.335 33.9991 103.773 33.3294C105.345 30.831 106.864 28.3068 108.41 25.7827C109.028 24.7782 109.646 23.7479 110.187 22.6919C110.316 22.4343 110.367 21.945 110.213 21.7647C110.058 21.5844 109.569 21.5328 109.285 21.5844C108.95 21.6616 108.616 21.8934 108.332 22.1252C107.611 22.7692 106.916 23.4131 106.272 24.1343C104.469 26.1433 103.052 28.4356 101.739 30.7537C101.043 32.0158 100.451 33.2779 100.348 34.7202ZM82.8075 25.9372C81.4939 27.2508 79.253 31.3976 78.9182 33.2006C78.8409 33.6642 78.7894 34.1536 78.8667 34.5915C79.0212 35.4414 79.6651 35.8278 80.4636 35.4929C81.0302 35.2611 81.5969 34.9005 82.0605 34.4884C83.7347 32.943 84.9968 31.0886 86.027 29.0538C86.0786 28.9765 86.0785 28.8735 86.0785 28.822C85.4346 28.3841 84.8165 28.0235 84.2756 27.5599C83.7347 27.0705 83.2968 26.4781 82.8075 25.9372ZM88.4224 22.8979C88.4739 22.8722 88.5254 22.8464 88.5769 22.8207C88.3194 22.3313 88.1906 21.6874 87.8042 21.3783C87.2891 20.9662 86.6194 21.2495 86.1043 21.6101C85.7437 21.8677 85.4089 22.1252 85.0998 22.4086C83.4771 24.1085 84.1726 26.7872 86.4134 27.4826C86.5679 27.5341 86.8512 27.4569 86.9028 27.3538C87.6755 25.9887 88.3451 24.5464 88.4224 22.8979Z" fill="#3EAFF8"></path>
  <path d="M44.7136 26.7611C43.9409 27.4307 43.2712 28.1004 42.4985 28.6413C41.9061 29.0534 41.2107 29.3882 40.5152 29.5943C38.8668 30.0579 37.579 29.0534 37.6047 27.3535C37.6305 26.4777 37.8365 25.6278 37.9653 24.649C37.7593 24.8293 37.6047 24.9839 37.4244 25.1126C36.2911 26.1171 35.1836 27.1732 33.9988 28.1004C32.8655 29.0019 31.5519 29.5685 30.058 29.6716C27.6884 29.8518 26.6324 28.1519 26.3491 26.5293C26.0658 24.9066 26.4006 23.3869 27.0187 21.9188C27.4566 20.9143 27.9717 19.9098 28.4354 18.931C28.5126 18.7508 28.6157 18.5962 28.7702 18.3129C27.6627 18.5447 26.7354 18.5962 26.143 19.7295C24.6234 22.64 22.6916 25.2672 20.1417 27.3792C19.2145 28.1519 18.1327 28.8216 17.0509 29.3367C16.4585 29.62 15.6858 29.6716 15.0162 29.5685C13.8313 29.3882 13.1617 28.358 13.0329 26.9414C12.8783 24.9581 13.342 23.1036 14.1662 21.3264C16.0464 17.1538 18.8024 13.6509 22.6401 11.0753C23.4643 10.5086 24.4688 10.1223 25.4218 9.86471C27.4051 9.37533 28.6929 10.4571 28.7444 12.5176C28.7702 13.8827 28.3323 15.1448 27.843 16.3811C27.7399 16.6387 27.6369 16.8963 27.5339 17.1796C27.5596 17.2311 27.6111 17.2826 27.6369 17.3599C28.1263 17.1538 28.6929 17.025 29.0793 16.716C30.3413 15.7372 31.5519 14.707 32.7625 13.6767C33.8958 12.7237 34.9518 11.6934 36.1366 10.8435C37.2441 10.0192 38.532 9.55563 39.9486 9.86471C41.3137 10.148 42.1379 11.2556 41.9834 12.6464C41.8288 14.0888 41.2107 15.3509 40.1804 16.4069C39.9743 16.6129 39.691 16.7932 39.4334 16.922C38.6607 17.2826 37.9653 16.8448 37.9396 15.9948C37.9138 14.7842 39.0213 13.3676 40.1546 13.2646C40.6182 13.2131 40.8501 13.0843 40.8243 12.5949C40.7985 12.1055 40.5667 11.7707 40.0774 11.7192C39.3047 11.6419 38.6607 11.951 38.1199 12.4404C37.1926 13.3161 36.2396 14.1661 35.4412 15.1448C33.4579 17.5144 32.0155 20.1931 30.9853 23.1036C30.7019 23.9021 30.5732 24.7263 30.805 25.5763C31.0883 26.6065 31.8095 27.0444 32.8397 26.8383C33.9473 26.6065 34.823 25.9626 35.6215 25.2157C37.7078 23.3097 39.4334 21.0946 41.0561 18.7765C42.7303 16.3811 44.5075 14.063 46.7226 12.157C47.521 11.4616 48.3968 10.8435 49.324 10.3283C50.9724 9.42685 51.8997 9.6329 53.2905 11.0238C53.5996 10.0965 54.3465 10.3283 55.0162 10.3283C55.8147 10.3283 56.6131 10.3283 57.5146 10.3283C57.3858 10.5859 57.2828 10.7919 57.1798 10.9722C54.6556 15.3766 52.1057 19.781 49.5816 24.1854C49.427 24.4687 49.2725 24.7778 49.1952 25.0869C49.1437 25.2672 49.221 25.5762 49.3498 25.6793C49.4785 25.7823 49.8134 25.7823 49.9679 25.6793C50.4573 25.396 50.9724 25.0869 51.3588 24.6748C52.5436 23.3869 53.7284 22.0734 54.8102 20.6825C55.2995 20.0643 55.7374 19.7037 56.5616 19.9355C56.5616 19.9613 56.5874 20.0386 56.5616 20.0643C54.5268 23.0521 52.389 25.9884 49.5043 28.2034C48.7316 28.7958 47.8559 29.2852 46.9286 29.5685C45.615 30.0064 44.662 29.1822 44.662 27.7913C44.7136 27.4822 44.7136 27.1474 44.7136 26.7611ZM43.2712 25.9368C43.3742 25.8853 43.606 25.8338 43.7606 25.705C44.353 25.1899 45.0226 24.7005 45.512 24.1081C46.2332 23.1809 46.9029 22.1764 47.4953 21.1461C49.1695 18.3129 50.7664 15.4797 52.4148 12.6464C52.7239 12.1313 52.4921 11.6934 51.8739 11.6934C51.5906 11.6934 51.2815 11.7707 51.0497 11.8995C50.6118 12.157 50.1482 12.4404 49.8134 12.801C47.2892 15.7115 44.8939 18.725 43.2454 22.2536C42.8591 23.0779 42.6015 23.9793 42.3439 24.8551C42.2409 25.4732 42.6015 25.9111 43.2712 25.9368ZM25.4218 18.5962C23.9022 18.1068 22.6401 17.3341 21.8674 15.9433C21.7644 16.0205 21.7129 16.0205 21.6871 16.0721C20.3478 17.978 19.0857 19.9098 18.313 22.1249C18.0812 22.8203 17.8751 23.5415 17.8494 24.2627C17.7979 25.6793 18.8024 26.2202 20.0129 25.4732C20.5281 25.1384 21.0174 24.752 21.4553 24.3399C23.078 22.7945 24.2113 20.8885 25.3188 18.9568C25.3703 18.8538 25.3703 18.7507 25.4218 18.5962ZM27.4824 13.1873C27.3793 12.6722 27.4309 12.0025 26.8127 11.6934C26.1945 11.3843 25.5764 11.5646 25.0612 11.951C24.6491 12.2343 24.2628 12.6207 23.9537 13.007C23.3355 13.7797 22.975 14.6554 23.3871 15.6342C23.8249 16.6902 24.7522 17.1796 25.8339 17.3599C25.9627 17.3856 26.2203 17.2826 26.2718 17.1796C26.8642 15.9175 27.4051 14.6554 27.4824 13.1873Z" fill="#3EAFF8"></path>
  <path d="M104.134 5.46011C103.155 6.51613 102.279 7.49488 101.378 8.39636C101.275 8.49939 100.966 8.52515 100.811 8.44788C100.193 8.11305 99.5749 7.72669 98.9568 7.34034C97.2311 6.25856 95.5054 5.09952 93.754 4.06925C92.3116 3.21928 90.7404 2.60112 89.0405 2.42082C88.8602 2.39506 88.6799 2.39507 88.4996 2.39507C87.5466 2.47234 87.5208 2.52385 87.4951 3.47684C87.4951 5.8207 86.7224 7.98426 85.5633 9.94176C84.7134 11.3841 83.6831 12.7235 82.5241 13.934C81.7771 14.7325 80.7469 15.3507 79.7423 15.7885C77.4758 16.793 76.4197 15.0673 76.6516 13.2901C76.7288 12.5689 76.9864 11.8478 77.2697 11.1781C78.8409 7.44337 81.4938 4.63589 84.8422 2.42082C85.0224 2.29204 85.2027 2.16326 85.4346 2.00872C84.6876 1.62237 83.9407 1.62237 83.3225 1.9572C81.8802 2.67839 80.412 3.39958 79.0984 4.30106C76.3425 6.18129 74.1017 8.60242 71.9896 11.1781C68.6155 15.2476 65.6792 19.549 63.5929 24.4428C62.6142 26.7093 61.9703 29.079 61.7127 31.5516C61.6097 32.5561 61.7127 33.5606 62.1506 34.4878C62.8975 36.059 64.4429 36.8317 66.0656 36.2393C67.1216 35.8529 68.1776 35.2605 69.0018 34.5394C72.0669 31.8864 74.2562 28.6411 75.1577 24.6231C75.3122 23.9791 75.338 23.2837 75.2865 22.614C75.1834 21.5838 74.488 21.1974 73.5865 21.6868C72.9941 21.9959 72.4275 22.4595 71.9896 22.9746C70.8563 24.2882 70.1866 25.8594 69.8003 27.5335C69.7488 27.7138 69.62 27.9714 69.4654 28.0487C67.6882 28.9502 66.1686 30.1865 64.7005 31.7319C64.7777 31.1395 64.8293 30.7016 64.9323 30.2638C65.0353 29.7744 65.1383 29.3108 65.2414 28.8214C65.3702 28.3578 65.4989 27.9199 65.6535 27.482C66.5807 24.8291 67.9458 22.4852 70.3669 20.9141C71.1654 20.399 72.1184 19.9869 73.0456 19.7293C75.0031 19.1884 76.291 20.1671 76.4713 22.2019C76.6258 24.2625 76.1107 26.1942 75.2349 28.0229C73.2774 32.247 70.4957 35.7757 66.4519 38.1968C64.9323 39.124 63.2839 39.5877 61.5067 39.3301C59.0083 38.9695 57.2568 37.0893 56.6644 34.3333C56.2266 32.247 56.4326 30.2122 56.9735 28.2032C58.3128 23.3867 60.734 19.0854 63.6187 15.0673C66.864 10.5599 70.5987 6.54188 75.2607 3.45109C77.1924 2.16325 79.253 1.1845 81.468 0.540588C82.6013 0.205752 83.7604 0.0512148 84.9194 0.334538C85.3058 0.437564 85.7694 0.540589 86.027 0.823913C86.5936 1.33905 87.083 1.26177 87.7269 1.02996C90.9722 -0.232113 94.1661 0.0254534 97.2053 1.67388C99.5749 2.85868 101.816 4.14652 104.134 5.46011ZM86.4648 3.19352C86.3875 3.16776 86.2845 3.14201 86.2073 3.11625C86.027 3.19352 85.8467 3.27079 85.6664 3.37382C82.2665 5.43435 79.8196 8.34485 78.1969 11.9508C77.9394 12.5174 77.8364 13.1613 77.8106 13.7795C77.7848 14.5264 78.3257 14.9901 79.0469 14.8098C79.5363 14.681 80.0514 14.4492 80.4635 14.1401C83.1165 12.1826 84.9194 9.58117 85.8467 6.4131C86.1557 5.38283 86.2588 4.2753 86.4648 3.19352Z" fill="#3EAFF8"></path>
  <path d="M105.37 10.2258C106.246 9.16974 107.096 8.13948 107.997 7.13497C108.075 7.03194 108.281 6.98043 108.435 6.98043C111.372 7.23799 114.076 6.43954 116.626 5.07444C118.841 3.91539 120.799 2.4215 122.576 0.644288C122.627 0.592774 122.705 0.541259 122.756 0.489746C122.808 0.541259 122.859 0.567016 122.911 0.618529C121.983 1.85485 121.159 3.16844 120.155 4.32749C117.45 7.41829 114.128 9.55609 110.058 10.3803C108.641 10.7151 106.194 10.6894 105.37 10.2258Z" fill="#3EAFF8"></path>
  <path d="M58.4418 13.6256C59.1372 12.4923 59.7554 11.4878 60.3736 10.4833C60.4251 10.3802 60.6054 10.303 60.7084 10.303C61.7902 10.2772 62.872 10.303 64.0825 10.303C63.3871 11.4362 62.7689 12.4408 62.125 13.471C62.0735 13.5483 61.9705 13.6256 61.8932 13.6256C60.7857 13.6256 59.6781 13.6256 58.4418 13.6256Z" fill="#3EAFF8"></path>
</svg>
