<?xml version="1.0" encoding="UTF-8"?>
<svg xmlns="http://www.w3.org/2000/svg" width="53" height="40" viewBox="0 0 53 40" fill="none">
  <path d="M1.6864 36.2607H3.21604V36.5667H2.05182V37.5099H3.13106V37.8159H2.05182V39.0991H1.6864V36.2607Z" fill="#3EAFF8"></path>
  <path d="M5.44246 38.0708C5.44246 38.8271 4.91559 39.1586 4.4227 39.1586C3.87033 39.1586 3.44543 38.7507 3.44543 38.1048C3.44543 37.425 3.89583 37.0171 4.4567 37.0171C5.05155 37.0171 5.44246 37.442 5.44246 38.0708ZM3.82784 38.0878C3.82784 38.5382 4.08278 38.8696 4.4482 38.8696C4.80511 38.8696 5.06855 38.5382 5.06855 38.0793C5.06855 37.7309 4.89859 37.2975 4.4567 37.2975C4.0148 37.2975 3.82784 37.7054 3.82784 38.0878Z" fill="#3EAFF8"></path>
  <path d="M7.76247 38.0708C7.76247 38.8271 7.23559 39.1586 6.74271 39.1586C6.19034 39.1586 5.76544 38.7507 5.76544 38.1048C5.76544 37.425 6.21583 37.0171 6.7767 37.0171C7.36306 37.0171 7.76247 37.442 7.76247 38.0708ZM6.13935 38.0878C6.13935 38.5382 6.39429 38.8696 6.75971 38.8696C7.11662 38.8696 7.38006 38.5382 7.38006 38.0793C7.38006 37.7309 7.2101 37.2975 6.7682 37.2975C6.33481 37.2975 6.13935 37.7054 6.13935 38.0878Z" fill="#3EAFF8"></path>
  <path d="M9.99744 36.1079V38.5808C9.99744 38.7593 10.0059 38.9717 10.0144 39.1077H9.68301L9.66601 38.7508H9.65752C9.54704 38.9802 9.2921 39.1502 8.96068 39.1502C8.4678 39.1502 8.08539 38.7338 8.08539 38.1134C8.08539 37.4336 8.50179 37.0172 9.00317 37.0172C9.3176 37.0172 9.53005 37.1617 9.61503 37.3316H9.62352V36.1079H9.99744ZM9.62352 37.901C9.62352 37.8585 9.62353 37.7905 9.60653 37.748C9.55554 37.5101 9.35159 37.3146 9.07115 37.3146C8.68874 37.3146 8.4593 37.6545 8.4593 38.1049C8.4593 38.5213 8.66325 38.8613 9.06266 38.8613C9.3091 38.8613 9.53855 38.6998 9.60653 38.4194C9.62353 38.3684 9.62352 38.3174 9.62352 38.2579V37.901Z" fill="#3EAFF8"></path>
  <path d="M12.6318 39.1079L12.6063 38.8529H12.5978C12.4873 39.0144 12.2664 39.1589 11.9689 39.1589C11.5525 39.1589 11.3486 38.8699 11.3486 38.5725C11.3486 38.0796 11.7905 37.8077 12.5808 37.8162V37.7737C12.5808 37.6037 12.5383 37.2978 12.1134 37.2978C11.9264 37.2978 11.7225 37.3573 11.578 37.4508L11.493 37.2043C11.663 37.0939 11.9094 37.0259 12.1644 37.0259C12.7847 37.0259 12.9377 37.4508 12.9377 37.8587V38.6235C12.9377 38.802 12.9462 38.9719 12.9717 39.1164H12.6318V39.1079ZM12.5808 38.0626C12.1729 38.0541 11.714 38.1221 11.714 38.5215C11.714 38.7595 11.8754 38.8784 12.0624 38.8784C12.3258 38.8784 12.4958 38.7085 12.5553 38.5385C12.5723 38.5045 12.5723 38.462 12.5723 38.4195V38.0626H12.5808Z" fill="#3EAFF8"></path>
  <path d="M13.5411 37.6207C13.5411 37.4083 13.5326 37.2383 13.5241 37.0684H13.8555L13.8725 37.4083H13.881C13.983 37.2128 14.2209 37.0259 14.5524 37.0259C14.8328 37.0259 15.2747 37.1958 15.2747 37.8927V39.1164H14.9008V37.9352C14.9008 37.6037 14.7818 37.3318 14.4249 37.3318C14.1785 37.3318 13.9915 37.5018 13.9235 37.7142C13.9065 37.7567 13.898 37.8247 13.898 37.8842V39.1164H13.5241V37.6207H13.5411Z" fill="#3EAFF8"></path>
  <path d="M17.6457 36.1079V38.5808C17.6457 38.7593 17.6542 38.9717 17.6627 39.1077H17.3313L17.3143 38.7508H17.3058C17.1953 38.9802 16.9404 39.1502 16.6089 39.1502C16.116 39.1502 15.7336 38.7338 15.7336 38.1134C15.7336 37.4336 16.15 37.0172 16.6514 37.0172C16.9658 37.0172 17.1783 37.1617 17.2633 37.3316H17.2718V36.1079H17.6457ZM17.2718 37.901C17.2718 37.8585 17.2718 37.7905 17.2548 37.748C17.2038 37.5101 16.9998 37.3146 16.7194 37.3146C16.337 37.3146 16.1076 37.6545 16.1076 38.1049C16.1076 38.5213 16.3115 38.8613 16.7109 38.8613C16.9573 38.8613 17.1868 38.6998 17.2548 38.4194C17.2718 38.3684 17.2718 38.3174 17.2718 38.2579V37.901Z" fill="#3EAFF8"></path>
  <path d="M19.6256 38.2153L19.3282 39.1076H18.9458L19.9146 36.2607H20.3565L21.3252 39.1076H20.9428L20.6369 38.2153H19.6256ZM20.5604 37.9263L20.28 37.1105C20.2205 36.9236 20.178 36.7536 20.1355 36.5922H20.127C20.0845 36.7621 20.042 36.9321 19.9826 37.1105L19.7021 37.9348H20.5604V37.9263Z" fill="#3EAFF8"></path>
  <path d="M23.4412 37.0684C23.4327 37.2128 23.4242 37.3828 23.4242 37.6292V38.819C23.4242 39.2863 23.3307 39.5753 23.1353 39.7537C22.9398 39.9407 22.6509 40.0002 22.3959 40.0002C22.1495 40.0002 21.8776 39.9407 21.7161 39.8302L21.8096 39.5498C21.9455 39.6348 22.158 39.7112 22.4129 39.7112C22.7953 39.7112 23.0673 39.5158 23.0673 38.9974V38.768H23.0588C22.9483 38.9549 22.7274 39.1079 22.4129 39.1079C21.9031 39.1079 21.5461 38.6745 21.5461 38.1136C21.5461 37.4253 21.9965 37.0259 22.4639 37.0259C22.8208 37.0259 23.0163 37.2128 23.1013 37.3828H23.1098L23.1268 37.0769H23.4412V37.0684ZM23.0588 37.8757C23.0588 37.8162 23.0588 37.7567 23.0418 37.7057C22.9738 37.4933 22.7953 37.3148 22.5234 37.3148C22.1665 37.3148 21.9116 37.6122 21.9116 38.0881C21.9116 38.4875 22.1155 38.819 22.5149 38.819C22.7444 38.819 22.9483 38.6745 23.0333 38.4365C23.0503 38.3771 23.0588 38.3006 23.0588 38.2411V37.8757Z" fill="#3EAFF8"></path>
  <path d="M24.0191 37.7054C24.0191 37.4675 24.0106 37.255 24.0021 37.0681H24.3251L24.3336 37.4675H24.3506C24.444 37.1955 24.665 37.0171 24.9199 37.0171C24.9624 37.0171 24.9879 37.0256 25.0219 37.0256V37.374C24.9879 37.3655 24.9454 37.3655 24.8944 37.3655C24.631 37.3655 24.444 37.561 24.393 37.8414C24.3845 37.8924 24.376 37.9519 24.376 38.0114V39.0991H24.0106V37.7054H24.0191Z" fill="#3EAFF8"></path>
  <path d="M27.2059 38.0708C27.2059 38.8271 26.679 39.1586 26.1861 39.1586C25.6338 39.1586 25.2089 38.7507 25.2089 38.1048C25.2089 37.425 25.6593 37.0171 26.2201 37.0171C26.8065 37.0171 27.2059 37.442 27.2059 38.0708ZM25.5828 38.0878C25.5828 38.5382 25.8377 38.8696 26.2031 38.8696C26.56 38.8696 26.8235 38.5382 26.8235 38.0793C26.8235 37.7309 26.6535 37.2975 26.2116 37.2975C25.7782 37.2975 25.5828 37.7054 25.5828 38.0878Z" fill="#3EAFF8"></path>
  <path d="M28.5995 37.833V38.105H27.5543V37.833H28.5995Z" fill="#3EAFF8"></path>
  <path d="M29.4832 38.2153L29.1858 39.1076H28.8034L29.7722 36.2607H30.2141L31.1829 39.1076H30.8004L30.4945 38.2153H29.4832ZM30.418 37.9263L30.1376 37.1105C30.0781 36.9236 30.0356 36.7536 29.9931 36.5922H29.9846C29.9421 36.7621 29.8997 36.9321 29.8402 37.1105L29.5597 37.9348H30.418V37.9263Z" fill="#3EAFF8"></path>
  <path d="M31.5823 36.1079H31.9562V39.1077H31.5823V36.1079Z" fill="#3EAFF8"></path>
  <path d="M32.5766 36.1079H32.9505V39.1077H32.5766V36.1079Z" fill="#3EAFF8"></path>
  <path d="M33.9872 36.4902C33.9956 36.6177 33.9022 36.7196 33.7492 36.7196C33.6217 36.7196 33.5283 36.6177 33.5283 36.4902C33.5283 36.3627 33.6217 36.2607 33.7577 36.2607C33.9022 36.2607 33.9872 36.3627 33.9872 36.4902ZM33.5793 39.1076V37.068H33.9532V39.1076H33.5793Z" fill="#3EAFF8"></path>
  <path d="M34.769 38.1558C34.7775 38.6572 35.1005 38.8611 35.4659 38.8611C35.7293 38.8611 35.8908 38.8186 36.0352 38.7592L36.0947 39.0226C35.9672 39.0821 35.7378 39.1501 35.4149 39.1501C34.786 39.1501 34.4121 38.7337 34.4121 38.1218C34.4121 37.51 34.7775 37.0171 35.3724 37.0171C36.0352 37.0171 36.2137 37.6034 36.2137 37.9774C36.2137 38.0538 36.2052 38.1133 36.2052 38.1473H34.769V38.1558ZM35.8568 37.8924C35.8653 37.6544 35.7633 37.289 35.3384 37.289C34.9645 37.289 34.7945 37.6374 34.769 37.8924H35.8568Z" fill="#3EAFF8"></path>
  <path d="M38.4402 36.1079V38.5808C38.4402 38.7593 38.4487 38.9717 38.4572 39.1077H38.1257L38.1088 38.7508H38.1003C37.9898 38.9802 37.7348 39.1502 37.4034 39.1502C36.9105 39.1502 36.5281 38.7338 36.5281 38.1134C36.5281 37.4336 36.9445 37.0172 37.4459 37.0172C37.7603 37.0172 37.9728 37.1617 38.0578 37.3316H38.0663V36.1079H38.4402ZM38.0663 37.901C38.0663 37.8585 38.0663 37.7905 38.0493 37.748C37.9983 37.5101 37.7943 37.3146 37.5139 37.3146C37.1315 37.3146 36.902 37.6545 36.902 38.1049C36.902 38.5213 37.106 38.8613 37.5054 38.8613C37.7518 38.8613 37.9813 38.6998 38.0493 38.4194C38.0663 38.3684 38.0663 38.3174 38.0663 38.2579V37.901Z" fill="#3EAFF8"></path>
  <path d="M42.1283 38.9804C41.9669 39.0399 41.6354 39.1334 41.253 39.1334C40.8196 39.1334 40.4712 39.0229 40.1908 38.7595C39.9443 38.5215 39.7914 38.1476 39.7914 37.6972C39.7999 36.8474 40.3777 36.2271 41.3295 36.2271C41.6609 36.2271 41.9159 36.295 42.0348 36.3545L41.9499 36.652C41.7969 36.584 41.6099 36.533 41.321 36.533C40.6327 36.533 40.1738 36.9664 40.1738 37.6802C40.1738 38.4025 40.6072 38.8274 41.27 38.8274C41.508 38.8274 41.6779 38.7934 41.7629 38.751V37.9012H41.1851V37.6037H42.1198V38.9804H42.1283Z" fill="#3EAFF8"></path>
  <path d="M42.6806 37.7054C42.6806 37.4675 42.6721 37.255 42.6636 37.0681H42.9866L42.9951 37.4675H43.0121C43.1055 37.1955 43.3265 37.0171 43.5814 37.0171C43.6239 37.0171 43.6494 37.0256 43.6834 37.0256V37.374C43.6494 37.3655 43.6069 37.3655 43.5559 37.3655C43.2925 37.3655 43.1055 37.561 43.0545 37.8414C43.046 37.8924 43.0375 37.9519 43.0375 38.0114V39.0991H42.6721V37.7054H42.6806Z" fill="#3EAFF8"></path>
  <path d="M45.859 38.0708C45.859 38.8271 45.3321 39.1586 44.8392 39.1586C44.2868 39.1586 43.8619 38.7507 43.8619 38.1048C43.8619 37.425 44.3123 37.0171 44.8732 37.0171C45.4681 37.0171 45.859 37.442 45.859 38.0708ZM44.2443 38.0878C44.2443 38.5382 44.4993 38.8696 44.8647 38.8696C45.2216 38.8696 45.4851 38.5382 45.4851 38.0793C45.4851 37.7309 45.3151 37.2975 44.8732 37.2975C44.4313 37.2975 44.2443 37.7054 44.2443 38.0878Z" fill="#3EAFF8"></path>
  <path d="M48.0428 38.5553C48.0428 38.7678 48.0428 38.9547 48.0598 39.1162H47.7284L47.7114 38.7848H47.7029C47.6094 38.9462 47.3885 39.1672 47.0316 39.1672C46.7086 39.1672 46.3262 38.9887 46.3262 38.2749V37.0767H46.7001V38.2069C46.7001 38.5978 46.8191 38.8527 47.159 38.8527C47.4055 38.8527 47.5839 38.6828 47.6519 38.5128C47.6689 38.4618 47.6859 38.3938 47.6859 38.3259V37.0767H48.0598V38.5553H48.0428Z" fill="#3EAFF8"></path>
  <path d="M48.6547 37.7309C48.6547 37.4675 48.6463 37.255 48.6378 37.0681H48.9692L48.9862 37.4165H48.9947C49.1476 37.1701 49.3856 37.0171 49.717 37.0171C50.2099 37.0171 50.5838 37.4335 50.5838 38.0538C50.5838 38.7847 50.1334 39.1501 49.6575 39.1501C49.3856 39.1501 49.1476 39.0311 49.0287 38.8272H49.0202V39.9404H48.6547V37.7309ZM49.0202 38.2748C49.0202 38.3258 49.0287 38.3768 49.0372 38.4278C49.1051 38.6827 49.3261 38.8612 49.598 38.8612C49.9889 38.8612 50.2184 38.5382 50.2184 38.0708C50.2184 37.6629 50.0059 37.3145 49.6065 37.3145C49.3516 37.3145 49.1136 37.493 49.0457 37.7734C49.0372 37.8159 49.0202 37.8754 49.0202 37.9264V38.2748Z" fill="#3EAFF8"></path>
  <path d="M47.1761 0C33.0779 0 18.9798 0 4.88162 0C1.78835 0 0.00377688 1.79307 0.00377688 4.90333C0.00377688 13.2314 -0.0047211 21.5509 0.00377688 29.8789C0.00377688 32.9382 1.77136 34.7142 4.80514 34.7142C11.8925 34.7142 18.9798 34.7142 26.0671 34.7142C33.1544 34.7142 40.2417 34.7142 47.329 34.7142C50.3203 34.7142 52.0539 32.9722 52.0539 29.9554C52.0539 21.5934 52.0539 13.2314 52.0539 4.86934C52.0454 1.73359 50.3118 0 47.1761 0ZM16.4049 11.8887C16.6173 9.57722 16.9572 7.27427 17.1697 4.96282C17.2462 4.12152 17.6116 3.90907 18.3934 3.93456C20.5179 3.99405 21.6056 4.73337 22.4045 6.7389C23.1438 8.58296 23.8831 10.427 24.6309 12.2626C24.7074 12.458 24.8519 12.6365 25.0473 12.9679C25.7357 11.2003 26.322 9.54323 27.0273 7.94561C27.5202 6.82388 28.1831 5.77013 28.7779 4.69088C29.1688 3.96855 29.7382 3.86658 30.486 4.13851C31.7522 4.5974 32.6615 5.37072 32.772 6.77289C33.0014 9.84066 33.1629 12.9084 33.3498 15.9762C33.3583 16.1207 33.3244 16.2651 33.3074 16.4011C31.4038 16.9705 30.4605 16.3926 30.2991 14.4806C30.1206 12.3901 30.0101 10.2996 29.6277 8.14956C29.1433 9.37327 28.6675 10.597 28.1746 11.8122C27.6647 13.0614 27.1888 14.3276 26.611 15.5428C25.9311 16.9875 24.5544 17.1914 23.5942 15.9082C22.8463 14.9055 22.3025 13.7242 21.7841 12.5685C21.1298 11.1239 20.5944 9.61971 19.7871 8.20055C19.6171 10.5375 19.4557 12.8744 19.2602 15.2029C19.2092 15.7892 19.5916 16.6475 18.4359 16.6815C17.2377 16.7155 16.4559 16.2991 16.3624 15.2709C16.2774 14.1406 16.3029 13.0019 16.4049 11.8887ZM3.74289 6.40748C3.75139 4.68239 4.29526 4.07053 5.99485 4.03654C8.91816 3.98555 11.8415 3.98555 14.7563 4.01104C15.0792 4.01104 15.3171 3.95156 15.4446 4.59741C15.5466 5.09879 15.4446 5.76163 15.0027 5.86361C14.6033 5.95708 14.0764 6.05056 13.592 6.05906C11.6545 6.07605 9.70847 6.06756 7.75393 6.06756C7.66045 6.33949 7.61797 6.40747 7.60947 6.47546C7.37152 9.19481 7.37152 9.19481 10.0569 9.19481C11.1446 9.19481 12.2324 9.15232 13.3116 9.22031C13.677 9.2458 13.8895 9.38177 14.0169 9.90015C14.1444 10.6735 13.8895 10.9369 13.5581 11.1409C13.2436 11.3363 12.6998 11.3278 12.2579 11.3363C11.0936 11.3618 9.93791 11.3873 8.77369 11.3363C7.92389 11.3023 7.54148 11.5573 7.60097 12.475C7.66895 13.5543 7.59247 14.6505 7.61797 15.7298C7.63496 16.3926 7.38002 16.639 6.70018 16.673C4.29526 16.792 3.72589 16.2991 3.72589 13.9367C3.73439 11.4298 3.73439 8.91438 3.74289 6.40748ZM48.0684 18.4491C48.0684 18.6276 48.0429 18.8145 48.0259 18.9335C44.9156 19.5029 41.8138 19.8853 38.814 20.6501C33.2394 22.0862 27.6562 23.5649 22.175 25.324C17.1867 26.9216 12.3598 29.0036 7.39702 30.6692C6.30928 31.0346 4.92411 30.5417 3.6749 30.2273C16.6768 25.5194 29.7467 21.3044 43.3775 18.9845C41.7543 19.1884 40.1312 19.3584 38.5166 19.6048C30.1206 20.8965 21.8946 22.8851 13.745 25.222C12.2664 25.6469 10.8217 26.2503 9.32606 26.4967C8.16184 26.6837 6.92963 26.4457 5.70592 26.1313C17.3651 22.5536 29.1688 19.8768 41.287 18.5851C38.882 18.7805 36.4686 18.908 34.0637 19.1714C26.271 20.0127 18.5719 21.3554 10.9237 23.0975C9.81045 23.3524 8.52725 22.8681 7.32903 22.5196C20.7049 19.3329 34.2251 17.7268 48.0344 17.8458C48.0514 18.1092 48.0684 18.2792 48.0684 18.4491ZM48.1108 15.5088C48.1193 16.4351 47.7794 16.639 46.9296 16.6305C45.2895 16.622 44.1763 15.8827 43.3605 14.506C42.0603 12.3221 40.7006 10.1721 39.3664 8.00509C39.2644 8.03059 39.1625 8.04759 39.0605 8.07308C39.0605 10.4185 39.086 12.7725 39.0435 15.1179C39.035 15.6958 39.4344 16.5541 38.3042 16.6645C37.004 16.792 36.1882 16.3331 35.9757 15.2624C35.9162 14.9734 35.9247 14.6675 35.9247 14.3701C35.9247 11.3278 35.9587 8.29403 35.9077 5.25175C35.8907 4.29998 36.1202 3.96006 37.1484 3.94306C39.2135 3.90907 40.6581 4.75037 41.6524 6.52645C42.6891 8.37051 43.7769 10.1891 45.1026 11.9482C45.1026 9.75568 45.0771 7.5547 45.1196 5.36223C45.128 4.82685 44.7456 4.01104 45.8334 3.92606C47.0911 3.82409 47.8814 4.27448 48.0598 5.27725C48.1023 5.49819 48.1023 5.72764 48.1023 5.94859C48.1108 9.13533 48.0684 12.3221 48.1108 15.5088Z" fill="#3EAFF8"></path>
</svg>
