<?xml version="1.0" encoding="UTF-8"?>
<svg xmlns="http://www.w3.org/2000/svg" width="123" height="40" viewBox="0 0 123 40" fill="none">
  <path d="M7.01858 32.1188V33.5796C6.30579 32.9833 5.56829 32.6851 4.80609 32.6851C3.96626 32.6851 3.25876 32.9868 2.68358 33.5902C2.10487 34.1901 1.81552 34.9241 1.81552 35.7921C1.81552 36.6496 2.10487 37.373 2.68358 37.9623C3.26229 38.5516 3.97155 38.8462 4.81138 38.8462C5.24541 38.8462 5.61416 38.7756 5.91763 38.6345C6.08701 38.5639 6.26168 38.4687 6.44164 38.3487C6.62513 38.2287 6.81745 38.084 7.01858 37.9146V39.402C6.31284 39.8007 5.57182 40.0001 4.7955 40.0001C3.62751 40.0001 2.63065 39.5925 1.80493 38.7774C0.982748 37.9552 0.571655 36.9637 0.571655 35.8027C0.571655 34.7618 0.915703 33.8337 1.6038 33.0186C2.45069 32.02 3.54635 31.5206 4.89078 31.5206C5.62475 31.5206 6.33402 31.72 7.01858 32.1188Z" fill="#BEE6FF"></path>
  <path d="M13.582 37.867H10.0833L9.17285 39.8519H7.8443L11.8882 31.166L15.7892 39.8519H14.4394L13.582 37.867ZM13.0791 36.7078L11.867 33.929L10.5967 36.7078H13.0791Z" fill="#BEE6FF"></path>
  <path d="M18.0493 36.5332V39.8519H16.816V31.6794H18.2134C18.8979 31.6794 19.4149 31.7271 19.7642 31.8224C20.1171 31.9176 20.4276 32.0976 20.6958 32.3622C21.1651 32.821 21.3998 33.3997 21.3998 34.0984C21.3998 34.8464 21.1492 35.4393 20.6482 35.8768C20.1471 36.3144 19.4713 36.5332 18.6209 36.5332H18.0493ZM18.0493 35.3899H18.5098C19.6425 35.3899 20.2088 34.9541 20.2088 34.0825C20.2088 33.2391 19.6248 32.8174 18.4568 32.8174H18.0493V35.3899Z" fill="#BEE6FF"></path>
  <path d="M23.9034 31.6794V39.8519H22.6701V31.6794H23.9034Z" fill="#BEE6FF"></path>
  <path d="M28.1219 32.8386V39.8519H26.8887V32.8386H25.0096V31.6794H29.9957V32.8386H28.1219Z" fill="#BEE6FF"></path>
  <path d="M35.4528 37.867H31.9541L31.0437 39.8519H29.7152L33.759 31.166L37.66 39.8519H36.3103L35.4528 37.867ZM34.95 36.7078L33.7379 33.929L32.4675 36.7078H34.95Z" fill="#BEE6FF"></path>
  <path d="M39.9201 31.6794V38.6927H42.3232V39.8519H38.6869V31.6794H39.9201Z" fill="#BEE6FF"></path>
  <path d="M95.3566 34.258C94.9507 34.258 94.6361 34.4255 94.4433 34.7248V33.228H93.7837V36.9929H94.4433V36.5514C94.6411 36.8508 94.9557 37.0182 95.3667 37.0182C96.1379 37.0182 96.6403 36.4652 96.6403 35.6483C96.6403 34.8162 96.1227 34.258 95.3566 34.258ZM95.2094 36.4499C94.7578 36.4499 94.4433 36.1151 94.4433 35.628C94.4433 35.151 94.7578 34.8111 95.2094 34.8111C95.6559 34.8111 95.9705 35.151 95.9705 35.628C95.9705 36.11 95.6559 36.4499 95.2094 36.4499Z" fill="#BEE6FF"></path>
  <path d="M98.2797 37.3328L99.4974 34.2783H98.8327L98.1275 36.2521L97.3562 34.2783H96.6713L97.7926 36.9472L97.7114 37.1248C97.6252 37.3125 97.4882 37.3988 97.3156 37.3988C97.1939 37.3988 97.0924 37.3582 96.9655 37.2618L96.6814 37.7641C96.8894 37.9315 97.0924 38.0076 97.3562 38.0076C97.7875 38.0076 98.1072 37.7844 98.2797 37.3328Z" fill="#BEE6FF"></path>
  <path d="M103.997 34.4864L104.392 33.9891C104.047 33.639 103.53 33.4208 103.023 33.4208C101.962 33.4208 101.145 34.1971 101.145 35.2119C101.145 36.2368 101.952 37.0233 102.997 37.0233C103.51 37.0233 104.032 36.7848 104.398 36.4144L103.997 35.9679C103.733 36.2267 103.373 36.384 103.033 36.384C102.363 36.384 101.84 35.8665 101.84 35.2018C101.84 34.5422 102.363 34.0246 103.033 34.0246C103.383 34.0246 103.743 34.2022 103.997 34.4864Z" fill="#BEE6FF"></path>
  <path d="M106.73 35.1358L107.13 34.7553C106.887 34.4407 106.491 34.258 105.994 34.258C105.177 34.258 104.614 34.8162 104.614 35.6432C104.614 36.4601 105.172 37.0182 105.984 37.0182C106.516 37.0182 106.922 36.8153 107.161 36.4702L106.75 36.1303C106.588 36.3434 106.334 36.4499 106.019 36.4499C105.583 36.4499 105.278 36.1252 105.278 35.6381C105.278 35.1612 105.583 34.8365 106.019 34.8365C106.319 34.8365 106.557 34.9481 106.73 35.1358Z" fill="#BEE6FF"></path>
  <path d="M107.752 33.4411V36.9929H108.432V35.5519H110.202V36.9929H110.882V33.4411H110.202V34.9582H108.432V33.4411H107.752Z" fill="#BEE6FF"></path>
  <path d="M112.369 35.5113V33.4411H111.689V35.5113C111.689 36.4449 112.298 37.0233 113.267 37.0233C114.231 37.0233 114.825 36.4449 114.825 35.5113V33.4411H114.145V35.5113C114.145 36.0796 113.805 36.4144 113.267 36.4144C112.729 36.4144 112.369 36.0745 112.369 35.5113Z" fill="#BEE6FF"></path>
  <path d="M117.203 33.4411H115.625V36.9929H117.249C118.061 36.9929 118.563 36.6225 118.563 36.0136C118.563 35.5417 118.279 35.2018 117.807 35.1155C118.193 35.0191 118.426 34.7198 118.426 34.3291C118.426 33.7811 117.959 33.4411 117.203 33.4411ZM117.168 34.8923H116.305V34.0297H117.168C117.518 34.0246 117.731 34.1819 117.731 34.4508C117.731 34.7299 117.518 34.8923 117.168 34.8923ZM117.168 36.4043H116.305V35.4656H117.168C117.599 35.4605 117.858 35.6381 117.858 35.9273C117.858 36.2318 117.599 36.4094 117.168 36.4043Z" fill="#BEE6FF"></path>
  <path d="M12.9153 18.1719H21.3321V18.8448C21.3321 20.3751 21.1518 21.7295 20.7912 22.908C20.4394 23.9986 19.8457 25.0188 19.0102 25.9686C17.1193 28.097 14.7139 29.1612 11.794 29.1612C8.94442 29.1612 6.50383 28.1322 4.4722 26.0742C2.44058 24.0074 1.42477 21.5272 1.42477 18.6337C1.42477 15.6786 2.45817 13.172 4.52497 11.114C6.59178 9.04722 9.10712 8.01382 12.071 8.01382C13.6629 8.01382 15.1492 8.33923 16.53 8.99006C17.8493 9.64088 19.1465 10.6963 20.4218 12.1562L18.2318 14.2538C16.5608 12.0287 14.5248 10.9161 12.1238 10.9161C9.96902 10.9161 8.16167 11.6593 6.70171 13.1457C5.24176 14.6056 4.51178 16.435 4.51178 18.6337C4.51178 20.9028 5.32531 22.7717 6.95237 24.2404C8.47389 25.6036 10.1229 26.2853 11.8995 26.2853C13.4122 26.2853 14.771 25.7752 15.976 24.7549C17.1809 23.7259 17.8537 22.4946 17.9944 21.0611H12.9153V18.1719Z" fill="#BEE6FF"></path>
  <path d="M32.1102 20.098L38.4162 28.7786H34.6563L28.8385 20.441H28.2844V28.7786H25.2106V8.40959H28.8121C31.5034 8.40959 33.447 8.9153 34.6432 9.92672C35.9624 11.0525 36.622 12.5388 36.622 14.3857C36.622 15.8281 36.2086 17.0682 35.3819 18.106C34.5552 19.1438 33.4646 19.8078 32.1102 20.098ZM28.2844 17.763H29.2607C32.1718 17.763 33.6273 16.6504 33.6273 14.4253C33.6273 12.3409 32.2114 11.2987 29.3794 11.2987H28.2844V17.763Z" fill="#BEE6FF"></path>
  <path d="M39.9993 18.5018C39.9993 15.6346 41.0502 13.172 43.1522 11.114C45.2454 9.05602 47.7608 8.02701 50.6983 8.02701C53.6006 8.02701 56.0896 9.06481 58.1651 11.1404C60.2495 13.216 61.2917 15.7094 61.2917 18.6205C61.2917 21.5492 60.2451 24.0338 58.152 26.0742C56.05 28.1234 53.5126 29.148 50.54 29.148C47.9103 29.148 45.5488 28.2377 43.4557 26.4172C41.1514 24.4031 39.9993 21.7647 39.9993 18.5018ZM43.0995 18.5413C43.0995 20.7928 43.8558 22.6442 45.3685 24.0953C46.8725 25.5465 48.6095 26.2721 50.5795 26.2721C52.7167 26.2721 54.5197 25.5333 55.9884 24.0557C57.4572 22.5606 58.1915 20.7401 58.1915 18.5941C58.1915 16.4218 57.466 14.6012 56.0148 13.1325C54.5724 11.6549 52.7871 10.9161 50.6587 10.9161C48.5391 10.9161 46.7493 11.6549 45.2894 13.1325C43.8294 14.5924 43.0995 16.3954 43.0995 18.5413Z" fill="#BEE6FF"></path>
  <path d="M65.289 8.40959L70.5924 22.0241L76.1331 7.42017L81.4365 22.0241L87.0696 8.40959H90.4073L81.3046 30.0715L76.0672 15.639L70.6056 30.0847L61.9514 8.40959H65.289Z" fill="#BEE6FF"></path>
  <path d="M99.7739 11.2987V28.7786H96.7001V11.2987H92.0168V8.40959H104.444V11.2987H99.7739Z" fill="#BEE6FF"></path>
  <path d="M110.262 16.3778H119.048V8.40959H122.122V28.7786H119.048V19.2669H110.262V28.7786H107.188V8.40959H110.262V16.3778Z" fill="#BEE6FF"></path>
  <path d="M22.4011 0H0V2.76817H22.4011V0Z" fill="#BEE6FF"></path>
</svg>
