<?xml version="1.0" encoding="UTF-8"?>
<svg xmlns="http://www.w3.org/2000/svg" width="60" height="50" viewBox="0 0 60 50" fill="none">
  <path d="M27.1284 36.9491C27.1284 36.1033 27.0963 35.2512 27.1348 34.4054C27.2757 31.2659 29.3325 28.5812 32.3246 27.7098C34.9901 26.941 37.7003 26.3002 40.3593 25.5122C41.5639 25.1533 41.9035 25.557 41.8586 26.6847C41.7753 28.703 42.0124 30.7341 41.6536 32.7459C41.1218 35.6869 39.3534 37.5514 36.5791 38.4292C33.9329 39.2685 31.229 39.9157 28.57 40.7101C27.5 41.0305 27.0707 40.755 27.122 39.6337C27.1604 38.7431 27.122 37.8461 27.1284 36.9491Z" fill="#BEE6FF"></path>
  <path d="M25.2126 36.8981C25.2126 37.9361 25.2062 38.974 25.2126 40.012C25.219 40.7104 24.8858 40.9603 24.2323 40.7745C21.1568 39.8839 18.0172 39.1534 15.0187 38.0386C12.0585 36.9365 10.7514 34.4697 10.6745 31.3622C10.6297 29.7156 10.6873 28.0625 10.6617 26.4094C10.6425 25.5188 10.9693 25.1985 11.8535 25.4483C14.7111 26.2556 17.6136 26.9348 20.4264 27.8639C23.6172 28.9211 25.2062 31.3622 25.219 34.7709C25.219 35.4757 25.219 36.1869 25.219 36.8917C25.219 36.8981 25.2126 36.8981 25.2126 36.8981Z" fill="#BEE6FF"></path>
  <path d="M27.122 23.9233C27.0963 22.8789 27.0579 21.5141 27.6922 20.2391C28.4034 18.7975 29.5567 17.8748 31.0624 17.4327C33.0038 16.8625 34.9708 16.3819 36.9186 15.8181C37.7836 15.5682 38.1809 15.8373 38.1681 16.7279C38.1552 17.9517 38.2321 19.1819 38.1104 20.3993C37.8221 23.2697 36.3612 24.9036 33.5677 25.6596C31.9338 26.1017 30.2871 26.5118 28.6725 27.0308C27.4423 27.428 27.0066 27.0372 27.1156 25.807C27.1604 25.288 27.122 24.769 27.122 23.9233Z" fill="#BEE6FF"></path>
  <path d="M25.2254 23.7373C25.2254 27.4471 25.2254 27.4407 22.0666 26.5245C20.8428 26.1721 19.6062 25.8581 18.3889 25.4929C16.1335 24.8073 14.7752 23.2632 14.474 20.9501C14.2946 19.5598 14.4035 18.1245 14.4035 16.7085C14.4035 15.882 14.8649 15.6321 15.6209 15.8436C17.6648 16.4202 19.7344 16.9072 21.7398 17.5992C24.8345 18.6692 25.4945 21.1616 25.2254 23.7373Z" fill="#BEE6FF"></path>
  <path d="M29.4349 5.06037C29.4478 6.73907 27.878 8.87909 26.5517 9.32119C26.4235 9.36604 26.2762 9.39167 26.1416 9.37245C24.0016 9.07771 22.3613 5.71391 23.457 3.7661C24.0785 2.66406 24.8409 1.6389 25.5586 0.594514C25.7892 0.261337 26.2057 -0.289686 26.5389 0.18445C27.673 1.82471 29.1146 3.3176 29.4349 5.06037Z" fill="#BEE6FF"></path>
  <path d="M25.2254 14.3958C25.2254 14.5367 25.2254 14.6777 25.2254 14.8187C25.2126 16.696 25.1934 16.7088 23.4314 16.2347C22.9765 16.1129 22.5215 15.9912 22.073 15.8695C18.6708 14.9596 17.7289 13.5693 18.0557 10.0517C18.1326 9.25077 18.4017 8.93681 19.2154 9.1867C20.0676 9.44939 20.939 9.64802 21.7975 9.88509C24.5078 10.6283 25.219 11.5766 25.2254 14.3958Z" fill="#BEE6FF"></path>
  <path d="M34.2852 11.2946C34.2788 14.0305 33.574 14.9595 30.9342 15.7092C30.0308 15.9655 29.121 16.1833 28.2176 16.4396C27.4871 16.6446 27.2116 16.3563 27.1219 15.6259C26.699 12.1724 27.7114 10.6475 31.0688 9.78888C31.3891 9.70559 31.7031 9.62229 32.0171 9.53259C34.298 8.87905 34.298 8.87905 34.2852 11.2946Z" fill="#BEE6FF"></path>
  <path d="M5.21498 49.9501L2.83242 46.5845L5.0567 44.1187H3.75712L1.11631 46.9677V44.1187H0V49.9501H1.11631V48.4839L2.04934 47.4509L3.86542 49.9501H5.21498Z" fill="#BEE6FF"></path>
  <path d="M6.04459 44.1187V49.9501H10.4182V48.9754H7.1609V47.5092H9.99332V46.5345H7.1609V45.0933H10.3182V44.1187H6.04459Z" fill="#BEE6FF"></path>
  <path d="M16.4757 49.9501L15.1927 48.0174C15.9425 47.7008 16.3507 47.0427 16.3507 46.1263C16.3507 44.8434 15.4926 44.1187 13.9848 44.1187H11.5523V49.9501H12.6686V48.234H13.9848C14.0598 48.234 14.1264 48.234 14.1931 48.2257L15.2011 49.9501H16.4757ZM12.6686 45.0933H13.9848C14.8179 45.0933 15.2844 45.4432 15.2844 46.1597C15.2844 46.8928 14.8179 47.251 13.9848 47.251H12.6686V45.0933Z" fill="#BEE6FF"></path>
  <path d="M17.5724 44.1187V49.9501H18.6638V45.9681L21.6628 49.9501H22.7208V44.1187H21.6378V48.109L18.6304 44.1187H17.5724Z" fill="#BEE6FF"></path>
  <path d="M24.154 44.1187V49.9501H28.5276V48.9754H25.2703V47.5092H28.1027V46.5345H25.2703V45.0933H28.4276V44.1187H24.154Z" fill="#BEE6FF"></path>
  <path d="M29.6616 44.1187V49.9501H33.2938V48.9421H30.7779V44.1187H29.6616Z" fill="#BEE6FF"></path>
  <path d="M36.6662 44.1187V49.9501H37.7825V47.6425H40.4233V46.6678H37.7825V45.0933H40.6816L40.6899 44.1187H36.6662Z" fill="#BEE6FF"></path>
  <path d="M42.5227 47.5176V44.1187H41.4064V47.5176C41.4064 49.0504 42.4061 50.0001 43.9972 50.0001C45.58 50.0001 46.5547 49.0504 46.5547 47.5176V44.1187H45.4384V47.5176C45.4384 48.4506 44.8803 49.0004 43.9972 49.0004C43.1142 49.0004 42.5227 48.4423 42.5227 47.5176Z" fill="#BEE6FF"></path>
  <path d="M47.8686 44.1187V49.9501H48.9599V45.9681L51.959 49.9501H53.017V44.1187H51.934V48.109L48.9266 44.1187H47.8686Z" fill="#BEE6FF"></path>
  <path d="M56.8744 44.1187H54.4502V49.9501H56.8327C58.6321 49.9501 59.9151 48.7338 59.9151 47.0344C59.9151 45.3266 58.6405 44.1187 56.8744 44.1187ZM56.8994 48.9671H55.5665V45.1017H56.8577C57.949 45.1017 58.7738 45.9014 58.7738 47.0427C58.7738 48.1757 57.974 48.9671 56.8994 48.9671Z" fill="#BEE6FF"></path>
</svg>
