<?xml version="1.0" encoding="UTF-8"?>
<svg xmlns="http://www.w3.org/2000/svg" width="156" height="40" viewBox="0 0 156 40" fill="none">
  <path d="M108.555 24.7958C109.592 23.5702 110.747 22.9103 112.232 22.9103C114.871 22.9338 116.05 24.2773 116.545 26.54C116.757 27.5534 116.663 28.6141 116.663 29.6511C116.686 31.1596 116.639 32.668 116.663 34.1764C116.663 34.695 116.474 34.8835 115.956 34.8835C114.259 34.86 114.494 34.9778 114.494 33.4458C114.471 31.7959 114.494 30.1461 114.494 28.4962C114.494 28.0955 114.471 27.6949 114.424 27.2942C114.282 26.1393 113.74 25.2908 112.562 25.0079C111.312 24.7251 110.228 24.9844 109.403 26.0214C108.791 26.7756 108.578 27.6477 108.578 28.6141C108.578 30.4289 108.555 32.2673 108.578 34.0822C108.578 34.695 108.39 34.9071 107.753 34.9071C106.221 34.8599 106.386 34.9778 106.386 33.5636C106.386 28.6612 106.386 23.7823 106.386 18.8799C106.386 17.9843 106.386 17.9843 107.282 17.9607C108.555 17.9607 108.555 17.9607 108.531 19.1863C108.508 20.9304 108.602 22.651 108.484 24.3951C108.484 24.4894 108.508 24.5837 108.555 24.7958Z" fill="#BEE6FF"></path>
  <path d="M76.7833 33.493C76.524 33.5402 76.4533 33.7759 76.2883 33.9409C74.3085 35.9678 70.7259 35.6378 69.3589 33.3045C68.9582 32.5974 68.7225 31.796 68.7225 30.9711C68.699 28.6377 68.699 26.2808 68.699 23.9474C68.699 23.476 68.8875 23.311 69.3354 23.311C71.1738 23.3346 70.8674 23.1461 70.8909 24.7724C70.9145 26.705 70.8674 28.6613 70.9145 30.594C70.9381 31.9846 71.6452 32.8802 72.8001 33.1866C74.1199 33.5402 75.3691 33.0923 76.1233 31.961C76.5947 31.2775 76.8068 30.4997 76.7833 29.6512C76.7833 27.8128 76.8068 25.9508 76.7597 24.1124C76.7597 23.4996 76.9247 23.2639 77.5611 23.2875C79.1402 23.3346 78.9752 23.1225 78.9988 24.7016C78.9988 27.8128 78.9752 30.924 79.0224 34.0351C79.0224 34.7186 78.8338 35.0015 78.1503 34.9072C78.0089 34.8836 77.8675 34.8836 77.7496 34.9072C77.0897 35.0015 76.8304 34.7186 76.9011 34.0587C76.9011 33.8701 76.9718 33.658 76.7833 33.493Z" fill="#BEE6FF"></path>
  <path d="M83.8541 24.631C84.0898 24.6546 84.1605 24.4425 84.2783 24.3246C85.6925 22.934 87.3659 22.5805 89.2043 23.1933C91.0192 23.8061 91.797 25.291 91.8677 27.0587C91.9855 29.4863 91.9148 31.9375 91.9148 34.3652C91.9148 34.4595 91.9384 34.5773 91.8913 34.6244C91.3727 35.1194 90.7599 34.813 90.1707 34.8601C89.7464 34.8837 89.7464 34.5537 89.7464 34.2473C89.7464 32.2911 89.7464 30.3113 89.7464 28.355C89.7464 28.0015 89.7464 27.6243 89.6757 27.2708C89.5107 26.163 89.0158 25.291 87.8609 25.0081C86.6117 24.7017 85.5275 24.9374 84.679 25.9745C84.0426 26.7287 83.8069 27.6479 83.8069 28.6143C83.8069 30.4291 83.7834 32.2204 83.8069 34.0352C83.8305 34.6716 83.642 34.9073 82.982 34.8837C81.45 34.8366 81.615 34.978 81.615 33.5403C81.615 30.4055 81.6386 27.2708 81.5914 24.1361C81.5914 23.4526 81.78 23.1697 82.4635 23.264C82.6285 23.2876 82.7699 23.2876 82.9349 23.264C83.5241 23.1933 83.7598 23.4526 83.7127 24.0418C83.7127 24.2539 83.6655 24.466 83.8541 24.631Z" fill="#BEE6FF"></path>
  <path d="M98.7971 35.2372C97.0765 35.1901 95.2146 34.1295 94.2011 31.8904C93.1169 29.4863 93.3054 27.1058 95.0024 25.0081C96.5816 23.0754 98.7264 22.5569 101.107 23.099C102.592 23.4525 103.652 24.3717 104.407 25.7152C104.595 26.0687 104.595 26.3044 104.171 26.4458C104.006 26.493 103.817 26.5637 103.676 26.658C103.016 27.0586 102.615 26.9172 102.168 26.2337C101.083 24.631 98.7028 24.4424 97.218 25.7623C95.4502 27.3415 95.3088 30.3583 96.9116 32.1025C98.4907 33.7995 101.178 33.6109 102.45 31.6547C102.757 31.1833 103.016 31.1361 103.487 31.3483C104.854 31.9611 104.878 32.0553 103.912 33.2338C102.827 34.6008 101.343 35.2608 98.7971 35.2372Z" fill="#BEE6FF"></path>
  <path d="M45.2239 26.4223C45.2239 23.9239 45.2239 21.4256 45.2239 18.9037C45.2239 17.9845 45.2239 17.9845 46.0959 17.9845C47.5337 17.9845 47.3922 17.8902 47.3922 19.3043C47.3922 23.4997 47.3922 27.695 47.3922 31.8904C47.3922 32.8096 47.4158 32.8096 48.2879 32.8096C50.1499 32.8096 52.0354 32.8332 53.8974 32.8096C54.5102 32.8096 54.793 32.951 54.7695 33.6345C54.7459 34.9073 54.7695 34.9073 53.4731 34.9073C50.9984 34.9073 48.5 34.8837 46.0252 34.9308C45.3653 34.9308 45.1767 34.7187 45.1767 34.0823C45.2474 31.5133 45.2239 28.9678 45.2239 26.4223Z" fill="#BEE6FF"></path>
  <path d="M52.4125 4.26691C52.931 4.26691 53.4496 4.26691 53.9681 4.26691C54.3924 4.26691 54.5573 4.45547 54.5809 4.87972C54.7459 7.28379 53.1903 9.14577 50.7627 9.45218C48.6414 9.71144 46.5202 8.48583 45.6952 6.506C44.8939 4.62045 45.4831 2.38136 47.1094 1.08504C48.7593 -0.234841 51.1162 -0.376261 52.7896 0.802209C53.0253 0.967194 53.5203 1.08504 53.1667 1.55643C52.8839 1.90997 52.6246 2.28708 52.0118 1.86283C50.6213 0.920056 48.8771 1.15576 47.7458 2.31066C46.6145 3.44199 46.4259 5.23326 47.298 6.62385C48.1229 7.94374 49.7963 8.55654 51.3283 8.03801C52.1533 7.75518 52.7896 7.23665 53.096 6.38816C53.3317 5.75178 53.2375 5.61037 52.5775 5.61037C51.9647 5.61037 51.3519 5.5868 50.7627 5.61037C50.2913 5.61037 50.197 5.3511 50.197 4.97399C50.197 4.59688 50.2677 4.31405 50.7391 4.31405C51.2812 4.26691 51.8469 4.26691 52.4125 4.26691Z" fill="#BEE6FF"></path>
  <path d="M140.421 3.41821C141.104 3.44178 141.693 3.5832 142.141 4.03102C142.33 4.21957 142.754 4.45527 142.424 4.78524C142.165 5.0445 141.811 5.11521 141.481 4.76167C141.057 4.31385 140.491 4.26671 139.902 4.45526C139.619 4.54954 139.36 4.71453 139.336 5.0445C139.313 5.39804 139.572 5.56303 139.855 5.6573C140.35 5.79872 140.868 5.91657 141.363 6.05799C142.283 6.34082 142.778 6.97719 142.73 7.75498C142.683 8.53277 142.094 9.12201 141.198 9.33413C140.067 9.59339 138.959 9.23985 138.37 8.39136C138.229 8.17923 137.946 7.94354 138.299 7.70784C138.582 7.54286 138.889 7.33073 139.171 7.75498C139.572 8.34421 140.138 8.55634 140.821 8.4385C141.222 8.36779 141.576 8.2028 141.599 7.73142C141.623 7.26003 141.293 7.07147 140.892 6.95362C140.491 6.83577 140.067 6.7415 139.643 6.62365C138.653 6.31725 138.134 5.72802 138.182 4.99736C138.229 4.24314 138.865 3.63034 139.831 3.44178C140.067 3.46535 140.279 3.44178 140.421 3.41821Z" fill="#BEE6FF"></path>
  <path d="M75.6755 4.76186C75.6755 3.51268 75.6755 2.28707 75.6755 1.03789C75.6755 0.590074 75.7698 0.330811 76.3119 0.330811C76.8304 0.330811 77.019 0.519366 77.019 1.03789C76.9954 3.55982 76.9954 6.08174 77.019 8.60367C77.019 9.12219 76.8304 9.31075 76.3119 9.31075C75.7934 9.31075 75.6755 9.05149 75.6755 8.60367C75.6991 7.33092 75.6755 6.05818 75.6755 4.76186Z" fill="#BEE6FF"></path>
  <path d="M103.629 7.75507C104.1 6.5766 104.572 5.37457 104.996 4.1961C105.161 3.74828 105.42 3.60686 105.868 3.654C106.174 3.67757 106.269 3.81898 106.151 4.10181C105.491 5.7281 104.831 7.35439 104.171 8.98068C104.006 9.35779 103.676 9.31065 103.37 9.33422C103.063 9.33422 102.875 9.19281 102.757 8.90997C102.167 7.40153 101.555 5.89309 100.989 4.38465C100.918 4.17252 100.612 3.84255 100.989 3.70114C101.343 3.55972 101.814 3.53615 102.002 4.05468C102.332 4.92675 102.662 5.77524 102.992 6.64731C103.134 7.02442 103.299 7.40153 103.44 7.75507C103.487 7.75507 103.558 7.75507 103.629 7.75507Z" fill="#BEE6FF"></path>
  <path d="M112.892 5.13883C112.892 3.96036 112.892 2.80545 112.892 1.62698C112.892 1.24987 112.939 0.967041 113.434 0.967041C113.929 0.967041 113.952 1.27344 113.952 1.65055C113.952 3.98392 113.952 6.3173 113.952 8.67423C113.952 9.05134 113.905 9.33417 113.41 9.33417C112.915 9.33417 112.892 9.02777 112.892 8.65066C112.892 7.47219 112.892 6.3173 112.892 5.13883Z" fill="#BEE6FF"></path>
  <path d="M135.282 4.31417C135.848 3.77208 136.343 3.46567 137.003 3.51281C137.239 3.53638 137.592 3.46567 137.545 3.84278C137.522 4.12562 137.451 4.47916 137.05 4.54986C135.471 4.87984 135.212 5.16267 135.212 6.76539C135.212 7.4489 135.212 8.10884 135.212 8.79236C135.212 9.09876 135.117 9.31088 134.764 9.31088C134.41 9.31088 134.222 9.19303 134.222 8.81592C134.222 7.26034 134.222 5.70476 134.222 4.17275C134.222 3.88992 134.316 3.70136 134.623 3.65422C135.07 3.58352 135.235 3.81921 135.282 4.31417Z" fill="#BEE6FF"></path>
  <path d="M35.9375 19.7754C36.6682 18.5733 36.6682 17.3949 35.9375 16.2164C34.8297 14.4015 33.7691 12.5631 32.7321 10.7247C31.2943 8.20279 29.7859 5.728 28.3953 3.15894C28.136 2.68755 27.8296 2.54614 27.3111 2.54614C25.0956 2.56971 22.9036 2.54614 20.6881 2.54614C19.981 2.54614 19.2975 2.54614 18.5904 2.54614C18.1662 2.54614 18.0719 2.73469 18.284 3.08824C18.3547 3.20608 18.4254 3.32393 18.4726 3.44178C21.2302 8.20279 23.9643 12.9638 26.7219 17.7248C26.7219 17.772 26.7454 17.8427 26.7454 17.8898C26.7454 18.1019 26.6747 18.2905 26.5569 18.479C26.0148 19.4454 25.4491 20.3882 24.907 21.3545C22.7386 25.1256 20.5467 28.8967 18.3783 32.6443C18.0248 33.2571 18.0719 33.3749 18.779 33.3985C21.6309 33.3985 24.5064 33.3985 27.3582 33.3985C27.7354 33.3985 28.0418 33.3278 28.2539 32.9507C29.4559 30.8294 30.658 28.7317 31.86 26.6105C33.2506 24.3714 34.594 22.0616 35.9375 19.7754Z" fill="#BEE6FF"></path>
  <path d="M17.8127 16.2401C16.6813 14.331 15.5736 12.3747 14.4422 10.4421C13.5702 8.95719 12.7688 7.40161 11.8025 5.96387C11.4018 4.99753 10.7654 4.1726 10.3176 3.2534C10.0583 2.75844 9.72836 2.54631 9.13913 2.56988C6.57006 2.59345 4.00101 2.59345 1.43194 2.59345C-0.170777 2.59345 -0.194346 2.59345 0.607013 3.98404C1.87976 6.15242 3.05823 8.39152 4.42525 10.5128C5.83942 12.9875 7.23001 15.4388 8.64418 17.9136C8.62061 18.1964 8.47919 18.4321 8.33777 18.6678C7.34786 20.4119 6.33437 22.1325 5.34446 23.8766C3.62389 26.8464 1.90333 29.7925 0.206331 32.7623C-0.14721 33.3751 -0.0764998 33.4929 0.654151 33.4929C3.50605 33.4929 6.38152 33.4929 9.23341 33.4929C9.7048 33.4929 9.96406 33.3279 10.1997 32.9272C11.3782 30.8531 12.5803 28.779 13.7587 26.7285C13.8059 26.6342 13.853 26.54 13.9001 26.4692C15.1729 24.2773 16.4456 22.0618 17.742 19.8698C18.4962 18.5971 18.5197 17.4422 17.8127 16.2401Z" fill="#BEE6FF"></path>
  <path d="M154.303 17.9607C153.761 17.9607 153.596 18.1728 153.596 18.6914C153.62 19.8698 153.596 21.0483 153.596 22.2032C153.596 23.0045 153.596 23.8059 153.596 24.7487C153.407 24.6073 153.337 24.5601 153.266 24.4894C151.145 22.3917 148.081 22.3917 145.959 24.4894C143.885 26.5635 143.485 30.0754 145.087 32.6209C146.808 35.3549 150.249 36.1091 152.653 34.2707C152.96 34.035 153.242 33.7286 153.525 33.4694C153.714 33.6815 153.667 33.8936 153.643 34.0822C153.572 34.7657 153.879 34.9778 154.492 34.9071C154.609 34.8835 154.727 34.9071 154.822 34.9071C155.741 34.9071 155.741 34.9071 155.741 33.9643C155.741 29.109 155.741 24.2773 155.741 19.422C155.764 17.8428 155.976 18.0078 154.303 17.9607ZM151.993 32.6444C150.202 33.9172 147.704 33.2337 146.737 31.1831C146.148 29.9575 146.101 28.6612 146.572 27.3649C147.161 25.7622 148.529 24.843 150.155 24.9137C151.71 24.9844 152.983 26.045 153.455 27.6477C153.596 28.1191 153.643 28.6141 153.643 29.109C153.643 30.5468 153.195 31.7959 151.993 32.6444Z" fill="#BEE6FF"></path>
  <path d="M130.521 27.2706C129.697 24.3008 127.151 22.5567 124.346 23.0045C123.168 23.1931 122.201 23.7823 121.353 24.7251C121.188 24.4187 121.212 24.183 121.212 23.9708C121.235 23.4994 121.047 23.2402 120.552 23.2873C120.363 23.3109 120.198 23.2873 120.01 23.2873C119.114 23.2873 119.114 23.2873 119.114 24.183C119.114 29.0147 119.114 33.8229 119.114 38.6546C119.114 40.1159 118.949 39.9745 120.457 39.998C121.07 40.0216 121.306 39.833 121.282 39.1967C121.235 37.4997 121.259 35.8262 121.235 34.1293C121.235 33.9643 121.141 33.7286 121.306 33.6343C121.518 33.5164 121.612 33.7757 121.73 33.87C123.474 35.4963 125.973 35.732 127.952 34.4357C130.239 32.9979 131.276 30.0282 130.521 27.2706ZM128.094 31.2773C127.41 32.5265 126.373 33.2336 124.935 33.2572C123.474 33.2808 122.343 32.5737 121.73 31.2773C120.976 29.7453 120.999 28.1662 121.824 26.6813C122.484 25.4793 123.568 24.89 124.959 24.9136C126.35 24.9372 127.363 25.5971 128.023 26.7992C128.424 27.5062 128.565 28.2605 128.589 29.0618C128.565 29.8396 128.447 30.5938 128.094 31.2773Z" fill="#BEE6FF"></path>
  <path d="M66.3185 27.8596C66.2949 25.597 65.2343 24.0178 63.278 23.2872C61.2039 22.5094 58.5877 23.0279 57.2442 24.4892C56.3015 25.5263 56.3486 25.6913 57.6214 26.2334C58.1399 26.4691 58.4463 26.4926 58.847 25.9741C59.6719 24.9135 60.8504 24.7249 62.0995 25.0313C63.2544 25.3142 63.9851 26.0448 64.1972 27.2468C64.3151 27.9304 64.2444 27.9775 63.5608 27.7654C61.5339 27.129 59.554 27.129 57.6921 28.3075C56.4664 29.0853 55.9244 30.2637 56.0186 31.7015C56.1129 33.1392 56.8436 34.1527 58.1163 34.7891C59.9783 35.7083 62.1938 35.3311 63.6787 33.8698C63.7965 33.752 63.8908 33.5634 64.1736 33.5399C64.1972 33.6577 64.2443 33.752 64.2443 33.8227C64.1736 34.9776 64.3386 34.9069 65.3992 34.9069C65.47 34.9069 65.5407 34.9069 65.6114 34.9069C66.177 34.9776 66.3656 34.7183 66.342 34.1527C66.3185 32.055 66.342 29.9573 66.3185 27.8596ZM64.1736 30.4759C63.8672 32.0079 62.2645 33.3042 60.6382 33.2806C59.1769 33.257 58.1634 32.385 58.3049 31.1829C58.3991 30.3344 58.9177 29.7923 59.6719 29.4859C61.0625 28.9203 62.4531 29.0617 63.7965 29.6509C64.1972 29.8159 64.2679 30.0987 64.1736 30.4759Z" fill="#BEE6FF"></path>
  <path d="M142.283 27.9541C142.283 25.6679 141.293 24.1123 139.407 23.3345C137.286 22.4861 134.74 22.9339 133.303 24.4187C132.289 25.4794 132.313 25.6443 133.633 26.2336C134.128 26.4457 134.41 26.4693 134.788 25.9743C135.589 24.9373 136.744 24.7251 137.969 24.9844C139.077 25.2201 139.808 25.88 140.114 26.9878C140.185 27.2471 140.303 27.5535 140.114 27.7656C139.902 27.9777 139.643 27.742 139.431 27.6713C137.498 27.1056 135.589 27.1292 133.798 28.1663C132.525 28.9205 131.912 30.0754 131.983 31.5603C132.053 33.0451 132.808 34.1058 134.151 34.7421C136.084 35.6613 138.347 35.2371 139.784 33.6815C139.879 33.5872 139.926 33.4458 140.185 33.4458C140.208 33.6579 140.232 33.8229 140.209 34.0115C140.138 34.6479 140.397 34.9307 141.057 34.86C141.198 34.8364 141.34 34.8364 141.458 34.86C142.118 34.9307 142.306 34.6479 142.306 34.0115C142.259 32.0081 142.283 29.9811 142.283 27.9541ZM140.161 30.4761C139.784 32.4559 137.427 33.7994 135.565 33.0687C134.905 32.8094 134.363 32.4088 134.269 31.6545C134.175 30.8768 134.505 30.2639 135.118 29.7926C135.683 29.3683 136.555 29.1326 137.569 29.1562C138.252 29.1797 139.006 29.2976 139.714 29.6276C140.114 29.7926 140.232 30.0518 140.161 30.4761Z" fill="#BEE6FF"></path>
  <path d="M74.6149 6.7887C74.6149 5.98734 74.6149 5.16241 74.6149 4.36105C74.6149 3.58326 74.0963 3.25329 73.46 3.67754C73.2243 3.81895 73.1064 3.84253 72.8707 3.72468C71.8101 3.15901 70.8202 3.34757 69.901 4.05465C68.6989 4.97386 68.3925 6.71799 69.1703 8.0143C69.9717 9.35776 71.3623 9.80558 72.8943 9.14564C73.3421 8.95708 73.3657 9.19278 73.3185 9.49918C73.2478 10.1356 73.0121 10.6776 72.3522 10.9133C71.6451 11.1726 70.938 11.0312 70.4195 10.3712C69.9717 9.82915 69.571 10.1591 69.2646 10.3948C68.8875 10.6776 69.2646 10.9605 69.4532 11.1726C70.1838 12.1154 71.4801 12.4689 72.6822 12.1154C73.7664 11.7854 74.4734 10.9133 74.5677 9.66416C74.6384 8.72139 74.5913 7.77861 74.5913 6.83583C74.5913 6.7887 74.5913 6.7887 74.6149 6.7887ZM71.8101 8.25C70.8673 8.25 70.1131 7.44864 70.1131 6.43516C70.1131 5.39811 70.8202 4.59674 71.7865 4.59674C72.7529 4.57317 73.4128 5.35097 73.4128 6.43516C73.3892 7.49578 72.7293 8.25 71.8101 8.25Z" fill="#BEE6FF"></path>
  <path d="M90.8542 1.08528C89.935 0.920291 89.0158 1.01457 88.0966 0.991C87.5545 0.967431 87.3895 1.20313 87.4131 1.72165C87.4366 2.87655 87.4131 4.00788 87.4131 5.16278C87.4131 6.31768 87.4366 7.44901 87.4131 8.60391C87.3895 9.16957 87.6252 9.3817 88.1673 9.33456C88.9686 9.28742 89.7936 9.31099 90.5949 9.24028C92.7162 9.05173 94.1067 7.47258 94.1775 5.20992C94.2246 3.08867 92.8811 1.41525 90.8542 1.08528ZM90.4064 8.25037C88.4737 8.46249 88.4737 8.46249 88.4737 6.57694C88.4737 6.10555 88.4737 5.63417 88.4737 5.16278C88.4737 4.33785 88.4737 3.48936 88.4737 2.66443C88.4737 2.24018 88.6387 2.02805 89.0629 2.05162C89.2986 2.05162 89.5107 2.05162 89.7464 2.05162C92.2212 2.05162 93.5175 3.70148 92.9519 6.10555C92.669 7.30759 91.7498 8.08538 90.4064 8.25037Z" fill="#BEE6FF"></path>
  <path d="M126.185 4.12526C125.266 3.27676 124.087 3.20606 122.956 3.93671C122.791 4.05455 122.602 4.33739 122.461 3.91314C122.319 3.53603 121.989 3.60674 121.707 3.67744C121.377 3.74815 121.424 4.05455 121.424 4.29025C121.424 5.44515 121.424 6.60005 121.424 7.73138C121.424 8.32062 121.424 8.90985 121.424 9.49908C121.424 10.0883 121.424 10.6776 121.424 11.2668C121.424 11.6675 121.612 11.8324 122.013 11.8324C122.414 11.8324 122.508 11.5968 122.508 11.2668C122.508 10.6068 122.508 9.97047 122.508 9.31053C122.508 9.16911 122.437 8.95699 122.602 8.86271C122.791 8.74486 122.885 8.93342 123.003 9.0277C123.262 9.21625 123.545 9.35766 123.851 9.42837C125.03 9.71121 126.208 9.16911 126.798 8.03778C127.457 6.74146 127.198 5.04447 126.185 4.12526ZM124.276 8.4856C123.262 8.4856 122.484 7.61353 122.484 6.43506C122.484 5.2566 123.239 4.4081 124.276 4.4081C125.289 4.4081 126.09 5.30373 126.09 6.45863C126.09 7.61353 125.313 8.4856 124.276 8.4856Z" fill="#BEE6FF"></path>
  <path d="M58.2813 3.37134C56.5372 3.37134 55.2173 4.66765 55.2173 6.38822C55.2173 8.10878 56.5843 9.47581 58.3284 9.45224C60.049 9.42867 61.3453 8.10878 61.3453 6.36465C61.3218 4.64408 60.0254 3.37134 58.2813 3.37134ZM58.2813 8.2502C57.315 8.2502 56.5843 7.47241 56.5607 6.45892C56.5372 5.42187 57.2914 4.59694 58.2813 4.59694C59.2712 4.59694 59.9783 5.32759 59.9783 6.38822C60.0019 7.44884 59.2477 8.27377 58.2813 8.2502Z" fill="#BEE6FF"></path>
  <path d="M65.0929 3.37134C63.3487 3.37134 62.0053 4.64408 61.9817 6.36465C61.9582 8.10878 63.3016 9.45224 65.0457 9.47581C66.7663 9.49938 68.0862 8.17949 68.1098 6.43536C68.1098 4.69122 66.837 3.39491 65.0929 3.37134ZM65.0693 8.2502C64.103 8.27377 63.3487 7.44884 63.3487 6.38822C63.3487 5.37473 64.0794 4.59694 65.0457 4.57337C66.0592 4.57337 66.7663 5.3276 66.7663 6.41179C66.7427 7.47241 66.0357 8.2502 65.0693 8.2502Z" fill="#BEE6FF"></path>
  <path d="M83.0527 7.96737C82.7228 7.68454 82.3692 7.30742 81.8507 7.82595C81.2615 8.41518 80.3187 8.39161 79.753 7.92023C79.3052 7.56669 79.3288 7.33099 79.8473 7.11887C80.8372 6.69462 81.8271 6.27037 82.8406 5.86969C83.312 5.68113 83.3591 5.44544 83.147 5.04476C82.6285 4.03127 81.8507 3.37134 80.6722 3.37134C78.9988 3.37134 77.7496 4.66765 77.7496 6.43536C77.7496 7.68454 78.4803 8.79229 79.6352 9.24011C80.8372 9.7115 81.945 9.49938 82.9113 8.62731C83.0527 8.46232 83.3827 8.2502 83.0527 7.96737ZM79.1402 5.75184C79.3052 5.0919 79.9887 4.54981 80.7429 4.54981C80.8136 4.54981 80.9551 4.57337 81.0729 4.62051C81.3322 4.71479 81.6386 4.80907 81.6621 5.11547C81.6621 5.37473 81.3558 5.39831 81.1672 5.49258C80.6251 5.72828 80.083 5.9404 79.5645 6.15252C79.1166 6.29394 79.0459 6.12895 79.1402 5.75184Z" fill="#BEE6FF"></path>
  <path d="M129.484 6.64745C130.521 6.62388 131.559 6.62388 132.596 6.64745C133.208 6.67101 133.397 6.43532 133.303 5.84609C133.067 4.29051 131.912 3.32416 130.404 3.41844C128.895 3.51271 127.811 4.78546 127.787 6.41175C127.787 7.73164 128.424 8.79226 129.508 9.24008C130.592 9.6879 131.912 9.47577 132.643 8.67441C132.831 8.46229 133.279 8.20303 132.902 7.84949C132.596 7.56665 132.289 7.56665 131.936 7.94376C131.087 8.88654 129.508 8.55657 129.037 7.3781C128.777 6.836 128.872 6.67101 129.484 6.64745ZM129.131 5.20971C129.437 4.66762 129.909 4.40835 130.521 4.40835C131.111 4.40835 131.629 4.5969 131.936 5.16257C132.124 5.49254 132.077 5.72824 131.629 5.72824C131.252 5.72824 130.851 5.72824 130.474 5.72824C130.121 5.72824 129.744 5.72824 129.39 5.72824C129.06 5.72824 128.942 5.56325 129.131 5.20971Z" fill="#BEE6FF"></path>
  <path d="M96.3695 6.64742C96.9351 6.64742 97.5008 6.64742 98.0664 6.64742C98.6321 6.64742 99.1978 6.64742 99.7634 6.64742C100.117 6.64742 100.306 6.52957 100.306 6.12889C100.329 5.0447 99.5513 3.91337 98.5143 3.5834C97.1472 3.13558 95.8274 3.63053 95.1439 4.85614C94.4132 6.17603 94.6725 7.89659 95.7567 8.8158C96.9116 9.80571 98.8442 9.64073 99.7634 8.48583C99.9049 8.32084 100.117 8.13228 99.9284 7.89659C99.7634 7.70804 99.5042 7.59019 99.2685 7.6609C99.1271 7.70804 99.0092 7.87302 98.8678 8.01444C97.9486 8.91007 96.3459 8.50939 95.9452 7.28379C95.7802 6.83597 95.8981 6.64742 96.3695 6.64742ZM96.1102 5.25682C96.4166 4.7383 96.8644 4.43189 97.4772 4.40832C98.0664 4.40832 98.585 4.57331 98.915 5.11541C99.1271 5.46895 99.0799 5.72821 98.6086 5.72821C98.2314 5.72821 97.8308 5.72821 97.4536 5.72821C97.1001 5.72821 96.723 5.72821 96.3695 5.72821C96.0395 5.72821 95.9216 5.56323 96.1102 5.25682Z" fill="#BEE6FF"></path>
  <path d="M108.013 6.64751C108.602 6.64751 109.191 6.64751 109.78 6.64751C110.37 6.64751 110.959 6.64751 111.548 6.64751C111.902 6.64751 112.02 6.48253 112.02 6.15256C112.02 4.97409 111.171 3.84275 110.016 3.53635C108.814 3.22995 107.683 3.63063 106.999 4.64412C106.269 5.70474 106.292 7.30745 107.046 8.34451C108.107 9.80581 110.488 9.87652 111.501 8.48592C111.642 8.29737 111.902 8.06168 111.572 7.84955C111.336 7.68457 111.03 7.47244 110.723 7.80241C110.652 7.87312 110.605 7.94383 110.558 8.01454C110.087 8.48592 109.498 8.5802 108.861 8.41522C108.225 8.25023 107.824 7.82598 107.612 7.18961C107.494 6.83607 107.612 6.64751 108.013 6.64751ZM107.824 5.20978C108.343 4.24343 109.969 4.12558 110.582 5.04479C110.7 5.20978 110.841 5.37477 110.747 5.58689C110.653 5.77545 110.44 5.72831 110.252 5.72831C109.922 5.72831 109.568 5.72831 109.238 5.72831C108.885 5.72831 108.508 5.72831 108.154 5.72831C107.753 5.75188 107.612 5.61046 107.824 5.20978Z" fill="#BEE6FF"></path>
  <path d="M117.723 3.41821C116.026 3.41821 114.777 4.7381 114.801 6.48223C114.824 8.22637 116.097 9.49912 117.794 9.47555C119.467 9.45198 120.646 8.17923 120.622 6.41153C120.622 4.69096 119.397 3.41821 117.723 3.41821ZM117.77 8.5092C116.71 8.53277 115.885 7.63713 115.885 6.48223C115.885 5.30376 116.686 4.4317 117.747 4.4317C118.784 4.4317 119.562 5.30376 119.562 6.45866C119.562 7.56642 118.784 8.48563 117.77 8.5092Z" fill="#BEE6FF"></path>
</svg>
