<?xml version="1.0" encoding="UTF-8"?>
<svg xmlns="http://www.w3.org/2000/svg" width="43" height="40" viewBox="0 0 43 40" fill="none">
  <path d="M37.1683 6.52498C36.9098 6.63579 36.5959 6.91895 36.5466 7.17749C36.1526 9.08577 35.8202 11.0064 35.4632 12.9577C37.3407 11.9051 38.1348 8.80261 37.7531 7.04207C37.7039 6.82046 37.2791 6.48189 37.1683 6.52498Z" fill="#3EAFF8"></path>
  <path d="M42.6962 6.40813C41.7051 3.76731 40.4309 3.23176 37.7962 4.41367C32.5392 6.77747 27.2946 9.17205 22.0252 11.5235C20.7941 12.0714 20.2524 13.0563 20 14.3367C19.4029 14.2567 18.8427 14.1828 17.944 14.0659C21.385 9.8615 22.0252 4.9369 22.6408 0C22.5793 0 22.5177 0 22.4561 0C22.2345 0.135426 22.0191 0.301632 21.7852 0.406279C15.6048 3.12712 9.43059 5.8418 3.24408 8.54417C2.61003 8.82118 2.22222 9.15974 2.07448 9.89843C1.78516 11.3389 1.35426 12.7485 0.991075 14.1767C0.652509 15.5063 0.33241 16.8359 0 18.1656C0.0615574 18.221 0.129271 18.2764 0.190828 18.3318C3.755 15.691 7.68236 13.7704 11.9175 12.293C6.10034 20.6587 1.93906 29.6399 0.855649 40C1.2373 39.8584 1.52047 39.7722 1.78516 39.6491C4.08126 38.615 6.37119 37.5623 8.67959 36.5528C9.95999 35.9926 10.5817 35.0385 10.8403 33.6904C11.2404 31.5913 11.7513 29.5106 12.2253 27.3684C12.4715 27.4915 12.5639 27.5162 12.6316 27.5716C16.7559 31.3758 23.4534 29.6768 25.2755 24.4752C25.3678 24.2044 25.6756 23.9397 25.9526 23.8104C28.0579 22.807 30.1508 21.779 32.293 20.8803C34.2074 20.0739 35.2785 18.6457 35.6171 16.6821C35.7525 15.8818 36.1404 15.4755 36.7559 15.0631C39.4952 13.241 42.0806 11.2773 42.7701 7.75623C42.7701 7.32533 42.7701 6.89443 42.7701 6.46353C42.7455 6.44506 42.7024 6.43275 42.6962 6.40813ZM17.5254 13.1794C17.4577 13.2533 17.3961 13.321 17.3284 13.3887C17.2607 13.4564 17.193 13.5242 17.1191 13.5857C16.5836 14.072 15.9434 14.4598 15.0816 14.743C14.2382 15.02 13.4934 15.4386 12.847 15.9557C12.4715 16.2573 12.133 16.5959 11.8313 16.9591C11.7452 17.0637 11.6651 17.1684 11.5851 17.2792C11.4681 17.4454 11.3512 17.6116 11.2465 17.7839C11.1788 17.9009 11.1111 18.0179 11.0434 18.1348C10.8526 18.4918 10.6925 18.8612 10.5571 19.249C10.514 19.3783 10.4709 19.5075 10.434 19.6368C10.397 19.7661 10.3601 19.9015 10.3355 20.0308C10.3109 20.1601 10.2801 20.2955 10.2555 20.4309C10.2062 20.7018 10.1754 20.9726 10.157 21.2496C10.1447 21.385 10.1447 21.5266 10.1385 21.6621C10.1323 22.0745 10.157 22.4931 10.2185 22.9117C10.237 23.0532 10.2616 23.1887 10.2924 23.3303C10.4586 24.1613 10.7602 24.9861 11.2034 25.7679C11.2219 25.8049 11.2465 25.8418 11.265 25.8787C11.3204 25.9895 11.3635 26.0942 11.4004 26.1988C11.4374 26.3035 11.462 26.4081 11.4805 26.5066C11.4989 26.6113 11.5051 26.7159 11.5051 26.8206C11.5051 27.0299 11.4681 27.2515 11.4066 27.4915C11.345 27.7193 11.2896 27.9532 11.2281 28.181C10.9942 29.1043 10.7664 30.0277 10.5633 30.9511C10.514 31.185 10.4648 31.4127 10.4155 31.6467C10.317 32.1145 10.2308 32.5762 10.1447 33.044C9.94768 34.1767 9.41213 35.0508 8.45183 35.5309C6.29732 36.6143 4.08741 37.587 1.59434 38.7504C1.80979 37.8578 2.00677 36.9898 2.20376 36.1404C2.28378 35.8018 2.35765 35.4632 2.43767 35.1308C2.70853 33.9612 2.97938 32.8224 3.27485 31.6959C3.36103 31.3758 3.44106 31.0557 3.5334 30.7356C3.87196 29.4922 4.27824 28.2733 4.72761 27.0853C4.79532 26.9129 4.85688 26.7467 4.92459 26.5743C5.06002 26.2358 5.19544 25.8972 5.33703 25.5648C5.47861 25.2324 5.62635 24.9 5.77408 24.5676C6.07572 23.9089 6.38966 23.2502 6.71591 22.6039C6.79594 22.4438 6.88212 22.2776 6.96214 22.1176C7.12835 21.7975 7.30071 21.4712 7.47307 21.1511C7.64543 20.831 7.81779 20.5109 7.99631 20.197C8.97507 18.4488 10.0277 16.7436 11.1296 15.0569C11.4743 14.5275 11.8006 13.992 12.1145 13.438C12.3238 13.0686 12.5269 12.6993 12.7239 12.3238C12.9209 11.9483 13.1179 11.5666 13.3087 11.185C13.4072 10.9942 13.4995 10.7972 13.5919 10.6063C12.9209 10.8218 12.2499 11.0557 11.5851 11.2958C11.185 11.4435 10.791 11.5913 10.397 11.7452C10.2678 11.7944 10.1323 11.8498 10.0031 11.899C8.16867 12.6316 6.37735 13.4626 4.60449 14.4106C4.22284 14.6137 3.84734 14.823 3.46568 15.0385C2.8378 15.3955 2.20991 15.771 1.58203 16.165C1.45891 16.245 1.32964 16.325 1.20653 16.3989C1.57587 14.94 1.95137 13.6042 2.26531 12.293C2.36996 11.856 2.46845 11.4189 2.56079 10.9818C2.5731 10.9141 2.59157 10.8526 2.60388 10.791C2.76393 10.1631 3.02862 9.71376 3.47184 9.35673C3.55802 9.28901 3.65651 9.2213 3.76116 9.15359C3.8104 9.12281 3.8658 9.09203 3.92121 9.06125C4.03201 8.99969 4.14897 8.94429 4.27824 8.88889C9.77532 6.52508 15.2355 4.06894 20.7079 1.64974C20.8433 1.58818 20.9849 1.53278 21.1388 1.47738C21.2927 1.42198 21.4589 1.35426 21.6497 1.28039C21.3974 3.10249 21.1573 4.89381 20.7325 6.62358C20.6771 6.83903 20.6217 7.05448 20.5663 7.26993C20.5048 7.48538 20.4432 7.69468 20.3755 7.91013C20.3078 8.11942 20.2401 8.33487 20.1662 8.54417C20.0554 8.85811 19.9323 9.17205 19.803 9.47984C19.5814 9.99692 19.329 10.5017 19.0459 11.0003C18.9905 11.0988 18.9289 11.1973 18.8673 11.2958C18.8058 11.3943 18.7442 11.4928 18.6827 11.5913C18.418 12.0037 18.1594 12.3853 17.8886 12.7301C17.7778 12.8901 17.6547 13.0379 17.5254 13.1794ZM27.7131 21.9267C26.839 22.2961 26.0203 22.8132 25.14 23.1456C24.4321 23.4103 23.6688 23.6257 22.924 23.6565C20.8126 23.7427 19.3598 21.9698 19.7415 19.8892C20.0923 17.9563 20.4432 16.0295 20.8002 14.0966C20.9664 13.1856 21.4404 12.5331 22.3269 12.1761C23.3118 11.7821 24.2721 11.3327 25.257 10.908C24.7153 13.795 24.1859 16.6143 23.6688 19.4398C23.595 19.8584 23.4965 20.3201 23.595 20.7141C23.6873 21.0526 23.9889 21.4897 24.2967 21.5882C24.7892 21.7544 25.14 21.4281 25.2385 20.8618C25.7802 17.7532 26.365 14.6507 26.8821 11.5359C27.0299 10.6433 27.3869 9.95383 28.1933 9.55371C29.1474 9.07972 30.1324 8.66728 31.2219 8.16867C30.6187 12.1083 30.0339 15.9126 29.4491 19.7168C29.2767 20.7756 28.7104 21.502 27.7131 21.9267ZM41.7852 7.95937C41.3173 10.2616 39.8646 11.9052 38.0425 13.2533C37.3284 13.7827 36.5651 14.2505 35.7772 14.6568C35.2601 14.9215 35.0139 15.2293 34.9461 15.8203C34.7122 18.0055 33.5549 19.5075 31.4681 20.2709C31.0803 20.4124 30.6925 20.5786 30.3109 20.7325C30.9449 16.8052 31.5789 12.9455 32.1945 9.07972C32.3423 8.14404 32.8224 7.52231 33.6781 7.12835C35.1862 6.4389 36.6574 5.68175 38.1717 5.01693C39.132 4.59218 40.1847 4.17975 41.1327 4.96153C42.0868 5.74946 42.0006 6.88827 41.7852 7.95937Z" fill="#3EAFF8"></path>
</svg>
