<?xml version="1.0" encoding="UTF-8"?>
<svg xmlns="http://www.w3.org/2000/svg" width="40" height="40" viewBox="0 0 40 40" fill="none">
  <path d="M40 0C26.6667 0 13.3333 0 0 0C0 13.3589 0 26.6794 0 40C7.73844 39.9936 15.4769 39.9872 23.2153 39.9809C28.4593 39.9809 33.7033 39.9809 38.9474 39.9809C39.2536 39.9809 39.5598 39.9809 39.9872 39.9809C39.9872 39.5981 39.9872 39.2727 39.9872 38.941C39.9872 26.3285 39.9872 13.7161 39.9872 1.10367C39.9809 0.733652 39.9936 0.370016 40 0ZM15.2536 17.1675C15.1324 17.3206 15.0112 17.4545 14.9027 17.5885C14.7943 17.7225 14.6858 17.8501 14.5837 17.9713C14.5263 17.9394 14.4753 17.9075 14.4179 17.8756C13.8692 17.563 13.3652 17.3525 12.9059 17.2504C12.8612 17.2376 12.8166 17.2313 12.7719 17.2249C12.504 17.1738 12.2488 17.1611 12.0064 17.1866C11.9681 17.193 11.9298 17.1994 11.8852 17.2057C11.7703 17.2249 11.6555 17.2504 11.547 17.2887C11.5088 17.3014 11.4769 17.3142 11.4386 17.327C11.1196 17.4609 10.8262 17.6778 10.571 17.9777C10.201 18.4051 9.99681 18.9346 9.96491 19.4769C9.96491 19.5152 9.95853 19.547 9.95853 19.5853C9.95853 19.6236 9.95853 19.6555 9.95853 19.6938C9.95853 19.7321 9.95853 19.764 9.96491 19.8022C9.97129 19.9426 9.99681 20.0893 10.0287 20.2233C10.0478 20.2935 10.067 20.3636 10.0861 20.4274C10.1754 20.7018 10.3158 20.9569 10.5008 21.1866C10.6858 21.4099 10.8772 21.5885 11.0813 21.7352C11.2855 21.882 11.5024 21.9777 11.7321 22.0415C11.8086 22.0606 11.8852 22.0797 11.9681 22.0925C12.689 22.201 13.5375 21.9522 14.5901 21.3461C14.6986 21.4609 14.807 21.5821 14.9155 21.697C15.0239 21.8118 15.1324 21.933 15.2408 22.0542C14.9474 22.3987 14.6029 22.6794 14.2265 22.8899C14.1754 22.9218 14.118 22.9474 14.0606 22.9729C13.2823 23.3493 12.3892 23.445 11.547 23.2536C11.3684 23.2153 11.1898 23.1579 11.0175 23.0941C10.7305 22.9856 10.4498 22.8325 10.1882 22.6475C10.0861 22.571 9.98405 22.4944 9.88836 22.4051C9.16746 21.7671 8.76555 20.8995 8.67624 20C8.66348 19.8788 8.6571 19.7576 8.6571 19.6427C8.6571 19.4003 8.68261 19.1643 8.72727 18.9282C8.77193 18.6922 8.8421 18.4625 8.9378 18.2392C8.96332 18.1818 8.98246 18.1308 9.01435 18.0734C9.17384 17.7416 9.37799 17.4354 9.63955 17.1611C9.68421 17.11 9.73525 17.0654 9.7799 17.0207C9.83094 16.9761 9.8756 16.9314 9.92663 16.8868C10.0287 16.8038 10.1308 16.7209 10.2392 16.6507C11.4769 15.8086 13.1292 15.7576 14.4498 16.5486C14.7305 16.7081 15.0048 16.9187 15.2536 17.1675ZM21.3525 22.4561C20.9059 21.1037 19.9107 20.8931 18.5837 21.2313C18.5837 21.8628 18.5837 22.5518 18.5837 23.311C18.0925 23.311 17.7544 23.311 17.3525 23.311C17.3525 20.8995 17.3525 18.5072 17.3525 16.0766C18.6475 16.0766 19.9745 15.9872 21.2759 16.1085C22.2456 16.1978 22.9282 16.874 23.1069 17.8692C23.2919 18.89 23.1451 19.8533 22.252 20.555C22.0989 20.6762 21.9458 20.7911 21.7608 20.9378C22.2584 21.7097 22.7368 22.4625 23.2408 23.2408C22.3285 23.4896 21.6587 23.3748 21.3525 22.4561ZM25.6842 23.2727C25.6842 20.874 25.6842 18.4817 25.6842 16.0383C27.3876 16.0383 29.0718 16.0383 30.756 16.0383C30.7815 16.1404 30.8006 16.2297 30.8198 16.3126C30.8581 16.4785 30.8772 16.6124 30.8836 16.7209C30.8836 16.7592 30.8836 16.7911 30.8836 16.8166C30.8772 16.8931 30.8581 16.9506 30.8262 16.9952C30.8198 17.0016 30.8134 17.0144 30.8006 17.0207C30.7624 17.059 30.7049 17.0909 30.6284 17.11C30.5646 17.1228 30.4944 17.1356 30.4051 17.1419C30.2711 17.1547 30.1116 17.1547 29.9139 17.1547C29.5566 17.1547 29.193 17.1547 28.8293 17.1547C28.5869 17.1547 28.3445 17.1547 28.0957 17.1547C27.7257 17.1547 27.3493 17.1547 26.9665 17.1547C26.9665 17.7927 26.9665 18.3732 26.9665 19.075C28.0957 19.075 29.2313 19.075 30.4179 19.075C30.4179 19.5215 30.4179 19.8469 30.4179 20.2488C29.2568 20.2488 28.134 20.2488 26.9601 20.2488C26.9601 20.8995 26.9601 21.4737 26.9601 22.1435C28.2807 22.1435 29.5694 22.1435 30.9474 22.1435C30.9474 22.1946 30.9537 22.2456 30.9537 22.2903C30.9665 22.6348 30.9856 22.9219 30.9984 23.2663C29.2185 23.2727 27.4832 23.2727 25.6842 23.2727Z" fill="#BEE6FF"></path>
  <path d="M18.6028 19.9044C18.6028 18.9666 18.6028 18.1308 18.6028 17.2058C19.3812 17.2058 20.1403 17.142 20.8804 17.2249C21.5757 17.3015 21.9585 17.78 21.9585 18.5136C21.9585 19.2728 21.6013 19.7959 20.8548 19.8789C20.1339 19.9682 19.4003 19.9044 18.6028 19.9044Z" fill="#BEE6FF"></path>
</svg>
